<svg width="291" height="96" viewBox="0 0 291 96" fill="none" xmlns="http://www.w3.org/2000/svg">
<g filter="url(#filter0_d_1_879)">
<rect x="16.5" y="8" width="258" height="64" rx="32" fill="white" shape-rendering="crispEdges"/>
<path d="M65.83 50.6667C54.4545 50.6828 45.8212 41.946 45.8333 30.6701C45.8333 29.9337 46.4303 29.3334 47.1667 29.3334H50.6858C51.3466 29.3334 51.9079 29.8189 52.0049 30.4725C52.2375 32.039 52.6936 33.564 53.3593 35.001L53.4963 35.2967C53.6868 35.7079 53.5577 36.1965 53.1889 36.4599C52.0991 37.2382 51.6826 38.8048 52.5316 40.0272C53.597 41.5612 54.9401 42.9039 56.4737 43.9689C57.696 44.8177 59.2624 44.4012 60.0407 43.3116C60.3042 42.9426 60.7931 42.8134 61.2045 43.004L61.4989 43.1403C62.936 43.806 64.4611 44.2621 66.0278 44.4946C66.6814 44.5916 67.1667 45.1529 67.1667 45.8137V49.3333C67.1667 50.0697 66.5683 50.6667 65.8319 50.6667L65.83 50.6667Z" fill="black"/>
<path d="M98.7433 38.364C98.7433 43.116 94.8553 46.74 90.1993 46.74C85.5193 46.74 81.6553 43.092 81.6553 38.364C81.6553 33.612 85.5193 29.94 90.1993 29.94C94.8553 29.94 98.7433 33.612 98.7433 38.364ZM96.7033 38.364C96.7033 34.74 93.8713 31.74 90.1993 31.74C86.5273 31.74 83.6713 34.74 83.6713 38.364C83.6713 42.012 86.5273 44.964 90.1993 44.964C93.8713 44.964 96.7033 41.988 96.7033 38.364ZM109.967 35.652H111.239C111.359 35.652 111.479 35.772 111.479 35.892V46.284C111.479 46.404 111.359 46.5 111.239 46.5H109.967C109.847 46.5 109.727 46.404 109.727 46.284V41.82H103.343V46.284C103.343 46.404 103.247 46.5 103.103 46.5H101.831C101.711 46.5 101.591 46.404 101.591 46.284V35.892C101.591 35.772 101.711 35.652 101.831 35.652H103.103C103.247 35.652 103.343 35.772 103.343 35.892V40.284H109.727V35.892C109.727 35.772 109.847 35.652 109.967 35.652ZM117.471 37.212C117.399 39.108 117.279 41.34 116.823 43.26C116.535 44.436 116.127 45.492 115.503 46.26C115.359 46.452 115.239 46.5 114.975 46.5H113.919C113.679 46.5 113.607 46.332 113.775 46.068C114.399 45.132 114.855 44.076 115.143 42.948C115.623 41.076 115.719 38.964 115.719 36.924V35.94C115.719 35.772 115.839 35.652 116.007 35.652H124.047C124.167 35.652 124.287 35.772 124.287 35.892V46.284C124.287 46.404 124.167 46.5 124.047 46.5H122.751C122.631 46.5 122.535 46.404 122.535 46.284V37.212H117.471ZM131.588 36.876C130.22 36.876 129.212 37.332 128.3 37.86C128.132 37.956 128.012 37.908 127.964 37.788L127.556 36.9C127.484 36.756 127.508 36.684 127.676 36.588C128.78 35.844 130.316 35.46 131.804 35.46C132.836 35.46 134.108 35.652 134.972 36.636C135.524 37.26 135.86 38.172 135.86 39.564V46.284C135.86 46.404 135.764 46.5 135.644 46.5H134.516C134.396 46.5 134.3 46.404 134.3 46.284V45.9H134.204C133.1 46.548 132.14 46.74 130.94 46.74C129.956 46.74 128.996 46.5 128.252 45.972C127.532 45.444 127.028 44.652 127.028 43.548C127.028 42.06 127.94 41.22 129.26 40.716C130.724 40.164 132.668 40.02 134.108 39.948V39.588C134.108 38.628 133.94 38.052 133.556 37.596C133.076 37.044 132.308 36.876 131.588 36.876ZM131.444 45.348C132.356 45.348 133.268 45.084 134.108 44.652V41.268C132.98 41.316 131.636 41.388 130.532 41.7C129.5 41.964 128.708 42.492 128.708 43.452C128.708 44.796 130.1 45.348 131.444 45.348ZM149.554 35.892V46.284C149.554 46.404 149.458 46.5 149.338 46.5H148.042C147.922 46.5 147.802 46.404 147.802 46.284V38.724L140.89 45.348V46.284C140.89 46.404 140.794 46.5 140.674 46.5H139.378C139.258 46.5 139.138 46.404 139.138 46.284V35.892C139.138 35.772 139.258 35.652 139.378 35.652H140.674C140.794 35.652 140.89 35.772 140.89 35.892V43.5L147.802 36.852V35.892C147.802 35.772 147.922 35.652 148.042 35.652H149.338C149.458 35.652 149.554 35.772 149.554 35.892ZM144.346 31.14C145.57 31.14 146.194 30.444 146.29 29.412C146.314 29.244 146.41 29.172 146.554 29.172H147.154C147.346 29.172 147.442 29.292 147.442 29.412C147.442 31.068 146.338 32.436 144.346 32.436C142.354 32.436 141.226 31.068 141.226 29.412C141.226 29.292 141.322 29.172 141.514 29.172H142.138C142.282 29.172 142.378 29.244 142.402 29.412C142.474 30.444 143.122 31.14 144.346 31.14ZM161.389 35.652H162.661C162.781 35.652 162.901 35.772 162.901 35.892V46.284C162.901 46.404 162.781 46.5 162.661 46.5H161.389C161.269 46.5 161.149 46.404 161.149 46.284V41.82H154.765V46.284C154.765 46.404 154.669 46.5 154.525 46.5H153.253C153.133 46.5 153.013 46.404 153.013 46.284V35.892C153.013 35.772 153.133 35.652 153.253 35.652H154.525C154.669 35.652 154.765 35.772 154.765 35.892V40.284H161.149V35.892C161.149 35.772 161.269 35.652 161.389 35.652ZM174.245 40.38H166.973C166.853 40.38 166.757 40.284 166.757 40.14V38.94C166.757 38.82 166.853 38.724 166.973 38.724H174.245C174.365 38.724 174.461 38.82 174.461 38.94V40.14C174.461 40.284 174.365 40.38 174.245 40.38ZM180.942 46.74C179.526 46.74 178.398 46.452 177.582 45.972C177.462 45.9 177.414 45.78 177.462 45.66L177.87 44.82C177.918 44.676 178.038 44.652 178.182 44.724C178.95 45.132 179.838 45.42 180.822 45.42C181.566 45.42 182.214 45.252 182.646 44.916C183.15 44.58 183.438 44.076 183.438 43.476C183.438 42.588 182.886 42.012 181.926 41.724C181.494 41.604 180.894 41.58 180.03 41.58H179.55C179.43 41.58 179.31 41.46 179.31 41.34V40.524C179.31 40.38 179.43 40.284 179.55 40.284H179.91C180.726 40.284 181.398 40.26 181.902 40.092C182.598 39.828 183.054 39.348 183.054 38.604C183.054 38.076 182.79 37.62 182.358 37.284C181.998 37.02 181.47 36.828 180.87 36.828C179.838 36.828 179.07 37.14 178.35 37.572C178.23 37.644 178.086 37.62 178.038 37.476L177.654 36.66C177.582 36.54 177.63 36.396 177.75 36.348C178.566 35.844 179.694 35.46 181.014 35.46C182.094 35.46 182.958 35.772 183.582 36.252C184.278 36.804 184.662 37.572 184.686 38.436C184.686 39.588 184.086 40.38 182.91 40.836C184.374 41.268 185.118 42.276 185.118 43.596C185.118 44.532 184.71 45.348 183.966 45.876C183.246 46.428 182.214 46.74 180.942 46.74ZM193.456 46.5H188.152C188.032 46.5 187.912 46.404 187.912 46.284V35.892C187.912 35.772 188.032 35.652 188.152 35.652H192.592C193.408 35.652 194.296 35.748 194.992 36.252C195.688 36.708 196.168 37.404 196.168 38.436C196.168 39.66 195.568 40.428 194.704 40.812V40.884C196.24 41.124 197.056 42.156 197.056 43.596C197.056 45.66 195.304 46.5 193.456 46.5ZM194.464 38.7C194.464 38.004 194.128 37.524 193.648 37.236C193.264 37.02 192.784 36.924 192.28 36.924H189.616V40.428H192.112C192.64 40.428 193.192 40.404 193.576 40.212C194.08 39.948 194.464 39.492 194.464 38.7ZM195.328 43.38C195.328 42.732 195.016 42.18 194.368 41.844C193.912 41.58 193.336 41.532 192.304 41.532H189.616V45.276H192.784C193.288 45.276 193.768 45.204 194.176 45.036C194.848 44.772 195.328 44.268 195.328 43.38ZM201.015 41.1C201.015 42.252 201.399 43.284 202.095 44.028C202.791 44.82 203.823 45.3 205.023 45.3C206.223 45.3 207.255 44.82 207.951 44.028C208.647 43.284 209.031 42.252 209.031 41.1C209.031 39.948 208.647 38.916 207.951 38.172C207.255 37.38 206.223 36.9 205.023 36.9C203.823 36.9 202.791 37.38 202.095 38.172C201.399 38.916 201.015 39.948 201.015 41.1ZM199.287 41.1C199.287 39.468 199.887 38.076 200.895 37.092C201.927 36.06 203.391 35.46 205.023 35.46C206.655 35.46 208.119 36.06 209.151 37.092C210.159 38.076 210.759 39.468 210.759 41.1C210.759 42.732 210.159 44.124 209.151 45.108C208.119 46.14 206.655 46.74 205.023 46.74C203.391 46.74 201.927 46.14 200.895 45.108C199.887 44.124 199.287 42.732 199.287 41.1ZM221.928 35.652H223.2C223.32 35.652 223.44 35.772 223.44 35.892V46.284C223.44 46.404 223.32 46.5 223.2 46.5H221.928C221.808 46.5 221.688 46.404 221.688 46.284V41.82H215.304V46.284C215.304 46.404 215.208 46.5 215.064 46.5H213.792C213.672 46.5 213.552 46.404 213.552 46.284V35.892C213.552 35.772 213.672 35.652 213.792 35.652H215.064C215.208 35.652 215.304 35.772 215.304 35.892V40.284H221.688V35.892C221.688 35.772 221.808 35.652 221.928 35.652ZM227.968 41.1C227.968 42.252 228.352 43.284 229.048 44.028C229.744 44.82 230.776 45.3 231.976 45.3C233.176 45.3 234.208 44.82 234.904 44.028C235.6 43.284 235.984 42.252 235.984 41.1C235.984 39.948 235.6 38.916 234.904 38.172C234.208 37.38 233.176 36.9 231.976 36.9C230.776 36.9 229.744 37.38 229.048 38.172C228.352 38.916 227.968 39.948 227.968 41.1ZM226.24 41.1C226.24 39.468 226.84 38.076 227.848 37.092C228.88 36.06 230.344 35.46 231.976 35.46C233.608 35.46 235.072 36.06 236.104 37.092C237.112 38.076 237.712 39.468 237.712 41.1C237.712 42.732 237.112 44.124 236.104 45.108C235.072 46.14 233.608 46.74 231.976 46.74C230.344 46.74 228.88 46.14 227.848 45.108C226.84 44.124 226.24 42.732 226.24 41.1ZM248.137 35.652H249.649C249.865 35.652 249.937 35.844 249.745 36.06L245.329 40.956L249.889 46.116C250.081 46.308 250.009 46.5 249.793 46.5H248.257C248.041 46.5 247.945 46.452 247.801 46.284L243.841 41.82H242.257V46.284C242.257 46.404 242.161 46.5 242.017 46.5H240.745C240.625 46.5 240.505 46.404 240.505 46.284V35.892C240.505 35.772 240.625 35.652 240.745 35.652H242.017C242.161 35.652 242.257 35.772 242.257 35.892V40.284H243.841L247.705 35.892C247.825 35.748 247.945 35.652 248.137 35.652Z" fill="black"/>
</g>
<defs>
<filter id="filter0_d_1_879" x="0.5" y="0" width="290" height="96" filterUnits="userSpaceOnUse" color-interpolation-filters="sRGB">
<feFlood flood-opacity="0" result="BackgroundImageFix"/>
<feColorMatrix in="SourceAlpha" type="matrix" values="0 0 0 0 0 0 0 0 0 0 0 0 0 0 0 0 0 0 127 0" result="hardAlpha"/>
<feOffset dy="8"/>
<feGaussianBlur stdDeviation="8"/>
<feComposite in2="hardAlpha" operator="out"/>
<feColorMatrix type="matrix" values="0 0 0 0 0.0416146 0 0 0 0 0.0571496 0 0 0 0 0.383385 0 0 0 0.08 0"/>
<feBlend mode="normal" in2="BackgroundImageFix" result="effect1_dropShadow_1_879"/>
<feBlend mode="normal" in="SourceGraphic" in2="effect1_dropShadow_1_879" result="shape"/>
</filter>
</defs>
</svg>
