<svg width="251" height="96" viewBox="0 0 251 96" fill="none" xmlns="http://www.w3.org/2000/svg">
<g filter="url(#filter0_d_1_880)">
<rect x="16" y="8" width="219" height="64" rx="32" fill="white" shape-rendering="crispEdges"/>
<g clip-path="url(#clip0_1_880)">
<path fill-rule="evenodd" clip-rule="evenodd" d="M42.252 26.2477C40 28.4997 40 32.1202 40 39.3569V40.6345C40 47.8798 40 51.5003 42.252 53.748C44.4997 56 48.1202 56 55.3612 56H56.6431C63.8842 56 67.5047 56 69.7523 53.748C72.0043 51.496 72.0043 47.8798 72.0043 40.6345V39.3569C72.0043 32.1158 72.0043 28.4953 69.7523 26.2433C67.5003 24 63.8798 24 56.6388 24H55.3569C48.1202 24 44.4953 24 42.252 26.2477Z" fill="#1D76FF"/>
<path fill-rule="evenodd" clip-rule="evenodd" d="M45.4005 33.7312C45.5781 42.0506 49.7356 47.0526 57.0243 47.0526H57.44V42.2931C60.1164 42.5573 62.1476 44.5191 62.9574 47.0526H66.7425C65.7031 43.2675 62.9704 41.1758 61.2641 40.3746C62.9704 39.3872 65.3696 36.9879 65.9413 33.7355H62.5027C61.7578 36.3773 59.5448 38.7765 57.4357 39.0017V33.7312H53.9927V42.9601C51.862 42.4274 49.1683 39.8419 49.047 33.7312H45.4005Z" fill="white"/>
</g>
<path d="M98.4308 38.364C98.4308 43.116 94.5428 46.74 89.8868 46.74C85.2068 46.74 81.3428 43.092 81.3428 38.364C81.3428 33.612 85.2068 29.94 89.8868 29.94C94.5428 29.94 98.4308 33.612 98.4308 38.364ZM96.3908 38.364C96.3908 34.74 93.5588 31.74 89.8868 31.74C86.2148 31.74 83.3588 34.74 83.3588 38.364C83.3588 42.012 86.2148 44.964 89.8868 44.964C93.5588 44.964 96.3908 41.988 96.3908 38.364ZM109.655 35.652H110.927C111.047 35.652 111.167 35.772 111.167 35.892V46.284C111.167 46.404 111.047 46.5 110.927 46.5H109.655C109.535 46.5 109.415 46.404 109.415 46.284V41.82H103.031V46.284C103.031 46.404 102.935 46.5 102.791 46.5H101.519C101.399 46.5 101.279 46.404 101.279 46.284V35.892C101.279 35.772 101.399 35.652 101.519 35.652H102.791C102.935 35.652 103.031 35.772 103.031 35.892V40.284H109.415V35.892C109.415 35.772 109.535 35.652 109.655 35.652ZM117.159 37.212C117.087 39.108 116.967 41.34 116.511 43.26C116.223 44.436 115.815 45.492 115.191 46.26C115.047 46.452 114.927 46.5 114.663 46.5H113.607C113.367 46.5 113.295 46.332 113.463 46.068C114.087 45.132 114.543 44.076 114.831 42.948C115.311 41.076 115.407 38.964 115.407 36.924V35.94C115.407 35.772 115.527 35.652 115.695 35.652H123.735C123.855 35.652 123.975 35.772 123.975 35.892V46.284C123.975 46.404 123.855 46.5 123.735 46.5H122.439C122.319 46.5 122.223 46.404 122.223 46.284V37.212H117.159ZM131.275 36.876C129.907 36.876 128.899 37.332 127.987 37.86C127.819 37.956 127.699 37.908 127.651 37.788L127.243 36.9C127.171 36.756 127.195 36.684 127.363 36.588C128.467 35.844 130.003 35.46 131.491 35.46C132.523 35.46 133.795 35.652 134.659 36.636C135.211 37.26 135.547 38.172 135.547 39.564V46.284C135.547 46.404 135.451 46.5 135.331 46.5H134.203C134.083 46.5 133.987 46.404 133.987 46.284V45.9H133.891C132.787 46.548 131.827 46.74 130.627 46.74C129.643 46.74 128.683 46.5 127.939 45.972C127.219 45.444 126.715 44.652 126.715 43.548C126.715 42.06 127.627 41.22 128.947 40.716C130.411 40.164 132.355 40.02 133.795 39.948V39.588C133.795 38.628 133.627 38.052 133.243 37.596C132.763 37.044 131.995 36.876 131.275 36.876ZM131.131 45.348C132.043 45.348 132.955 45.084 133.795 44.652V41.268C132.667 41.316 131.323 41.388 130.219 41.7C129.187 41.964 128.395 42.492 128.395 43.452C128.395 44.796 129.787 45.348 131.131 45.348ZM149.242 35.892V46.284C149.242 46.404 149.146 46.5 149.026 46.5H147.73C147.61 46.5 147.49 46.404 147.49 46.284V38.724L140.578 45.348V46.284C140.578 46.404 140.482 46.5 140.362 46.5H139.066C138.946 46.5 138.826 46.404 138.826 46.284V35.892C138.826 35.772 138.946 35.652 139.066 35.652H140.362C140.482 35.652 140.578 35.772 140.578 35.892V43.5L147.49 36.852V35.892C147.49 35.772 147.61 35.652 147.73 35.652H149.026C149.146 35.652 149.242 35.772 149.242 35.892ZM144.034 31.14C145.258 31.14 145.882 30.444 145.978 29.412C146.002 29.244 146.098 29.172 146.242 29.172H146.842C147.034 29.172 147.13 29.292 147.13 29.412C147.13 31.068 146.026 32.436 144.034 32.436C142.042 32.436 140.914 31.068 140.914 29.412C140.914 29.292 141.01 29.172 141.202 29.172H141.826C141.97 29.172 142.066 29.244 142.09 29.412C142.162 30.444 142.81 31.14 144.034 31.14ZM161.077 35.652H162.349C162.469 35.652 162.589 35.772 162.589 35.892V46.284C162.589 46.404 162.469 46.5 162.349 46.5H161.077C160.957 46.5 160.837 46.404 160.837 46.284V41.82H154.453V46.284C154.453 46.404 154.357 46.5 154.213 46.5H152.941C152.821 46.5 152.701 46.404 152.701 46.284V35.892C152.701 35.772 152.821 35.652 152.941 35.652H154.213C154.357 35.652 154.453 35.772 154.453 35.892V40.284H160.837V35.892C160.837 35.772 160.957 35.652 161.077 35.652ZM173.933 40.38H166.661C166.541 40.38 166.445 40.284 166.445 40.14V38.94C166.445 38.82 166.541 38.724 166.661 38.724H173.933C174.053 38.724 174.149 38.82 174.149 38.94V40.14C174.149 40.284 174.053 40.38 173.933 40.38ZM186.917 35.892V46.284C186.917 46.404 186.821 46.5 186.701 46.5H185.405C185.285 46.5 185.165 46.404 185.165 46.284V42.42C184.301 42.732 183.125 43.02 181.997 43.02C180.581 43.02 179.525 42.708 178.853 42.06C178.205 41.412 177.893 40.452 177.893 39.132V35.892C177.893 35.772 177.989 35.652 178.109 35.652H179.405C179.525 35.652 179.645 35.772 179.645 35.892V39.132C179.645 39.948 179.837 40.548 180.221 40.932C180.629 41.388 181.277 41.556 182.141 41.556C183.269 41.556 184.397 41.268 185.165 40.98V35.892C185.165 35.772 185.285 35.652 185.405 35.652H186.701C186.821 35.652 186.917 35.772 186.917 35.892ZM194.205 36.876C192.837 36.876 191.829 37.332 190.917 37.86C190.749 37.956 190.629 37.908 190.581 37.788L190.173 36.9C190.101 36.756 190.125 36.684 190.293 36.588C191.397 35.844 192.933 35.46 194.421 35.46C195.453 35.46 196.725 35.652 197.589 36.636C198.141 37.26 198.477 38.172 198.477 39.564V46.284C198.477 46.404 198.381 46.5 198.261 46.5H197.133C197.013 46.5 196.917 46.404 196.917 46.284V45.9H196.821C195.717 46.548 194.757 46.74 193.557 46.74C192.573 46.74 191.613 46.5 190.869 45.972C190.149 45.444 189.645 44.652 189.645 43.548C189.645 42.06 190.557 41.22 191.877 40.716C193.341 40.164 195.285 40.02 196.725 39.948V39.588C196.725 38.628 196.557 38.052 196.173 37.596C195.693 37.044 194.925 36.876 194.205 36.876ZM194.061 45.348C194.973 45.348 195.885 45.084 196.725 44.652V41.268C195.597 41.316 194.253 41.388 193.149 41.7C192.117 41.964 191.325 42.492 191.325 43.452C191.325 44.796 192.717 45.348 194.061 45.348ZM200.459 35.652H210.323C210.467 35.652 210.563 35.772 210.563 35.892V36.972C210.563 37.092 210.467 37.212 210.323 37.212H206.267V46.284C206.267 46.404 206.171 46.5 206.051 46.5H204.755C204.635 46.5 204.515 46.404 204.515 46.284V37.212H200.459C200.339 37.212 200.243 37.092 200.243 36.972V35.892C200.243 35.772 200.339 35.652 200.459 35.652Z" fill="#192B4D"/>
</g>
<defs>
<filter id="filter0_d_1_880" x="0" y="0" width="251" height="96" filterUnits="userSpaceOnUse" color-interpolation-filters="sRGB">
<feFlood flood-opacity="0" result="BackgroundImageFix"/>
<feColorMatrix in="SourceAlpha" type="matrix" values="0 0 0 0 0 0 0 0 0 0 0 0 0 0 0 0 0 0 127 0" result="hardAlpha"/>
<feOffset dy="8"/>
<feGaussianBlur stdDeviation="8"/>
<feComposite in2="hardAlpha" operator="out"/>
<feColorMatrix type="matrix" values="0 0 0 0 0.0416146 0 0 0 0 0.0571496 0 0 0 0 0.383385 0 0 0 0.08 0"/>
<feBlend mode="normal" in2="BackgroundImageFix" result="effect1_dropShadow_1_880"/>
<feBlend mode="normal" in="SourceGraphic" in2="effect1_dropShadow_1_880" result="shape"/>
</filter>
<clipPath id="clip0_1_880">
<rect width="32" height="32" fill="white" transform="translate(40 24)"/>
</clipPath>
</defs>
</svg>
