<svg width="288" height="390" viewBox="0 0 288 390" fill="none" xmlns="http://www.w3.org/2000/svg">
<g clip-path="url(#clip0_1_906)">
<rect x="2" y="2" width="284" height="386" rx="30" fill="white" stroke="url(#paint0_linear_1_906)" stroke-width="4"/>
<path d="M101.371 60.688H107.299L108.283 63.592C108.355 63.88 108.547 64 108.883 64H111.643C111.883 64 111.979 63.88 111.979 63.712C111.979 63.64 111.955 63.568 111.931 63.472L106.411 47.968C106.339 47.68 106.147 47.584 105.835 47.584H102.979C102.667 47.584 102.475 47.68 102.403 47.968L96.8114 63.472C96.7874 63.568 96.7634 63.64 96.7634 63.712C96.7634 63.88 96.8594 64 97.0994 64H99.7874C100.099 64 100.291 63.88 100.387 63.592L101.371 60.688ZM106.459 57.928H102.235L104.371 51.784L106.459 57.928ZM123.587 48.016C123.587 47.8 123.443 47.656 123.227 47.656H121.043C120.851 47.656 120.683 47.824 120.683 48.016C120.683 48.52 120.491 48.976 119.819 49.48C118.595 50.392 117.227 50.464 115.691 51.52C114.035 52.648 112.955 54.64 112.955 57.352C112.955 59.488 113.483 61.456 114.755 62.728C115.715 63.688 117.059 64.24 118.907 64.24C120.539 64.24 122.147 63.736 123.251 62.728C124.211 61.84 124.835 60.592 124.835 58.936C124.835 57.496 124.379 56.32 123.635 55.504C122.723 54.52 121.403 53.992 119.915 53.992C118.163 53.992 117.035 54.472 116.315 54.832C116.675 54.016 117.371 53.44 118.115 53.032C119.435 52.312 121.163 52 122.315 50.992C123.275 50.176 123.587 49.048 123.587 48.016ZM116.027 57.16C116.795 56.56 117.755 56.176 119.003 56.176C119.771 56.176 120.515 56.464 121.043 57.04C121.451 57.496 121.715 58.144 121.715 58.936C121.715 59.8 121.475 60.472 120.995 60.928C120.515 61.456 119.771 61.744 118.907 61.744C117.875 61.744 117.179 61.312 116.747 60.616C116.267 59.896 116.075 58.912 116.027 57.88V57.16ZM129.762 58.528C129.762 56.752 130.842 55.48 132.57 55.48C134.298 55.48 135.378 56.752 135.378 58.528C135.378 60.304 134.298 61.576 132.57 61.576C130.842 61.576 129.762 60.304 129.762 58.528ZM126.642 58.528C126.642 62.104 129.258 64.24 132.57 64.24C135.882 64.24 138.522 62.104 138.522 58.528C138.522 54.952 135.882 52.792 132.57 52.792C129.258 52.792 126.642 54.952 126.642 58.528ZM149.161 53.008C148.945 53.008 148.801 53.152 148.801 53.368V57.064H144.145V53.368C144.145 53.152 143.977 53.008 143.785 53.008H141.361C141.145 53.008 141.001 53.152 141.001 53.368V63.64C141.001 63.832 141.145 64 141.361 64H143.785C143.977 64 144.145 63.832 144.145 63.64V59.824H148.801V63.64C148.801 63.832 148.945 64 149.161 64H151.561C151.777 64 151.921 63.832 151.921 63.64V53.368C151.921 53.152 151.777 53.008 151.561 53.008H149.161ZM157.704 57.376C157.776 56.824 157.968 56.32 158.304 55.936C158.664 55.528 159.312 55.288 160.032 55.288C160.728 55.288 161.304 55.552 161.664 55.936C162 56.344 162.168 56.8 162.192 57.376H157.704ZM160.584 61.72C159.696 61.72 158.928 61.432 158.448 60.928C158.064 60.544 157.848 60.088 157.728 59.464H164.904C165.12 59.464 165.264 59.32 165.264 59.104C165.288 57.424 165.048 55.792 164.256 54.712C163.392 53.536 162 52.792 160.008 52.792C158.28 52.792 156.912 53.368 155.976 54.328C154.992 55.336 154.368 56.728 154.368 58.384C154.368 60.136 154.944 61.624 155.976 62.632C157.008 63.664 158.496 64.24 160.344 64.24C161.952 64.24 163.584 63.736 164.472 63.112C164.64 62.992 164.712 62.8 164.64 62.632L163.8 61.072C163.704 60.88 163.512 60.832 163.248 60.976C162.456 61.432 161.64 61.72 160.584 61.72ZM175.81 53.008C175.594 53.008 175.45 53.152 175.45 53.368V57.064H170.794V53.368C170.794 53.152 170.626 53.008 170.434 53.008H168.01C167.794 53.008 167.65 53.152 167.65 53.368V63.64C167.65 63.832 167.794 64 168.01 64H170.434C170.626 64 170.794 63.832 170.794 63.64V59.824H175.45V63.64C175.45 63.832 175.594 64 175.81 64H178.21C178.426 64 178.57 63.832 178.57 63.64V53.368C178.57 53.152 178.426 53.008 178.21 53.008H175.81ZM180.729 53.008C180.513 53.008 180.345 53.152 180.345 53.368V55.432C180.345 55.648 180.513 55.792 180.729 55.792H184.137V63.64C184.137 63.832 184.305 64 184.497 64H186.921C187.137 64 187.305 63.832 187.305 63.64V55.792H190.713C190.905 55.792 191.073 55.648 191.073 55.432V53.368C191.073 53.152 190.905 53.008 190.713 53.008H180.729ZM86.184 89.368C86.184 90.472 85.776 91.216 85.104 91.624C84.6 91.96 83.928 92.056 83.256 92.056H80.064V86.68H83.328C84.024 86.68 84.624 86.824 85.152 87.16C85.776 87.568 86.184 88.288 86.184 89.368ZM76.992 83.656C76.776 83.656 76.608 83.824 76.608 84.016V99.64C76.608 99.832 76.776 100 76.992 100H79.704C79.92 100 80.064 99.832 80.064 99.64V95.08H83.784C85.08 95.08 86.376 94.864 87.528 93.976C88.848 92.968 89.688 91.336 89.688 89.368C89.688 87.448 88.92 85.888 87.696 84.88C86.52 83.92 85.152 83.656 83.784 83.656H76.992ZM108.972 91.864C108.972 86.824 105.132 83.44 100.236 83.44C95.3396 83.44 91.4756 86.8 91.4756 91.864C91.4756 96.928 95.3396 100.24 100.236 100.24C105.132 100.24 108.972 96.904 108.972 91.864ZM105.3 91.864C105.3 94.792 103.164 97.024 100.236 97.024C97.3076 97.024 95.1476 94.816 95.1476 91.864C95.1476 88.936 97.3076 86.68 100.236 86.68C103.164 86.68 105.3 88.936 105.3 91.864ZM127.496 95.704H127.448L123.704 84.064C123.608 83.776 123.44 83.656 123.104 83.656H121.016C120.704 83.656 120.512 83.776 120.416 84.064L116.864 95.704H116.816L113.432 84.064C113.36 83.776 113.144 83.656 112.832 83.656H110C109.64 83.656 109.664 83.968 109.736 84.16L114.728 99.712C114.824 99.976 114.992 100.072 115.304 100.072H118.352C118.664 100.072 118.832 99.976 118.928 99.712L122.048 90.088H122.096L125.384 99.712C125.456 99.976 125.648 100.072 125.96 100.072H128.984C129.296 100.072 129.464 99.976 129.56 99.712L134.432 84.16C134.504 83.968 134.504 83.656 134.144 83.656H131.336C131 83.656 130.808 83.776 130.736 84.064L127.496 95.704ZM136.5 83.656C136.284 83.656 136.116 83.824 136.116 84.016V99.64C136.116 99.832 136.284 100 136.5 100H148.068C148.284 100 148.452 99.832 148.452 99.64V97.312C148.452 97.096 148.284 96.952 148.068 96.952H139.572V93.328H146.82C147.012 93.328 147.18 93.16 147.18 92.944V90.616C147.18 90.424 147.012 90.256 146.82 90.256H139.572V86.728H148.068C148.284 86.728 148.452 86.56 148.452 86.368V84.016C148.452 83.824 148.284 83.656 148.068 83.656H136.5ZM162.544 92.968C163.792 91.912 164.368 90.52 164.368 88.96C164.368 87.184 163.672 85.648 162.472 84.76C161.368 83.944 159.928 83.656 158.344 83.656H151.336C151.12 83.656 150.952 83.824 150.952 84.016V99.64C150.952 99.832 151.12 100 151.336 100H154.048C154.264 100 154.408 99.832 154.408 99.64V94.336H157.504L160.72 99.64C160.888 99.952 161.08 100 161.416 100H164.416C164.824 100 164.8 99.664 164.632 99.376L161.08 93.856C161.584 93.64 162.064 93.376 162.544 92.968ZM158.056 86.584C158.776 86.584 159.424 86.704 159.952 87.04C160.504 87.424 160.864 88.048 160.864 89.008C160.864 89.968 160.456 90.64 159.88 91C159.376 91.336 158.656 91.408 157.768 91.408H154.408V86.584H158.056ZM178.193 94.264L170.345 84.04C170.129 83.752 169.985 83.656 169.697 83.656H167.297C167.081 83.656 166.913 83.824 166.913 84.016V99.64C166.913 99.832 167.081 100 167.297 100H169.865C170.057 100 170.225 99.832 170.225 99.64V89.416L178.073 99.64C178.289 99.952 178.457 100 178.745 100H181.145C181.337 100 181.505 99.832 181.505 99.64V84.016C181.505 83.824 181.337 83.656 181.145 83.656H178.553C178.361 83.656 178.193 83.824 178.193 84.016V94.264ZM185.133 83.656C184.917 83.656 184.749 83.824 184.749 84.016V99.64C184.749 99.832 184.917 100 185.133 100H196.701C196.917 100 197.085 99.832 197.085 99.64V97.312C197.085 97.096 196.917 96.952 196.701 96.952H188.205V93.328H195.453C195.645 93.328 195.813 93.16 195.813 92.944V90.616C195.813 90.424 195.645 90.256 195.453 90.256H188.205V86.728H196.701C196.917 86.728 197.085 86.56 197.085 86.368V84.016C197.085 83.824 196.917 83.656 196.701 83.656H185.133ZM199.185 83.656C198.993 83.656 198.825 83.824 198.825 84.016V86.368C198.825 86.56 198.993 86.728 199.185 86.728H204.081V99.64C204.081 99.832 204.249 100 204.441 100H207.177C207.369 100 207.537 99.832 207.537 99.64V86.728H212.433C212.649 86.728 212.817 86.56 212.817 86.368V84.016C212.817 83.824 212.649 83.656 212.433 83.656H199.185Z" fill="#192B4D"/>
<path d="M157.227 195.64C157.227 171.616 147.763 159.136 130.395 159.136C112.923 159.136 103.459 171.616 103.459 195.64C103.459 219.56 112.923 232.04 130.395 232.04C147.763 232.04 157.227 219.56 157.227 195.64ZM142.355 195.64C142.355 203.544 141.315 209.368 139.131 213.216C137.155 216.648 134.243 218.416 130.395 218.416C126.443 218.416 123.531 216.648 121.555 213.216C119.371 209.368 118.227 203.544 118.227 195.64C118.227 187.944 119.371 181.912 121.659 178.064C123.635 174.632 126.547 172.864 130.395 172.864C134.347 172.864 137.155 174.632 139.131 178.064C141.315 181.912 142.355 187.84 142.355 195.64ZM167.763 231V185.304H179.795C185.384 185.304 189.523 186.435 192.211 188.696C194.941 190.957 196.307 194.243 196.307 198.552C196.307 201.453 195.645 203.949 194.323 206.04C193 208.088 191.037 209.667 188.435 210.776C185.875 211.885 182.696 212.44 178.899 212.44H173.523V231H167.763ZM162.195 222.296V218.136H184.083V222.296H162.195ZM162.195 212.44V207.576H176.851V212.44H162.195ZM178.067 207.576C180.669 207.576 182.867 207.299 184.659 206.744C186.493 206.189 187.901 205.272 188.883 203.992C189.864 202.712 190.355 200.963 190.355 198.744C190.355 195.843 189.459 193.688 187.667 192.28C185.875 190.872 183.08 190.168 179.283 190.168H173.523V207.576H178.067Z" fill="#FBC300"/>
<path d="M78.203 314H77.105C77.015 314 76.943 313.928 76.943 313.838V303.038H69.833V313.838C69.833 313.928 69.743 314 69.653 314H68.555C68.465 314 68.393 313.928 68.393 313.838V301.922C68.393 301.832 68.465 301.742 68.555 301.742H78.203C78.293 301.742 78.383 301.832 78.383 301.922V313.838C78.383 313.928 78.293 314 78.203 314ZM81.8404 309.95C81.8404 310.814 82.1284 311.588 82.6504 312.146C83.1724 312.74 83.9464 313.1 84.8464 313.1C85.7464 313.1 86.5204 312.74 87.0424 312.146C87.5644 311.588 87.8524 310.814 87.8524 309.95C87.8524 309.086 87.5644 308.312 87.0424 307.754C86.5204 307.16 85.7464 306.8 84.8464 306.8C83.9464 306.8 83.1724 307.16 82.6504 307.754C82.1284 308.312 81.8404 309.086 81.8404 309.95ZM80.5444 309.95C80.5444 308.726 80.9944 307.682 81.7504 306.944C82.5244 306.17 83.6224 305.72 84.8464 305.72C86.0704 305.72 87.1684 306.17 87.9424 306.944C88.6984 307.682 89.1484 308.726 89.1484 309.95C89.1484 311.174 88.6984 312.218 87.9424 312.956C87.1684 313.73 86.0704 314.18 84.8464 314.18C83.6224 314.18 82.5244 313.73 81.7504 312.956C80.9944 312.218 80.5444 311.174 80.5444 309.95ZM95.1673 313.082C95.8513 313.082 96.4993 312.956 97.1293 312.578C97.2553 312.488 97.3633 312.524 97.3993 312.614L97.7593 313.28C97.8133 313.37 97.7593 313.442 97.6693 313.514C97.0213 313.946 96.0853 314.18 95.1313 314.18C93.7633 314.18 92.6293 313.748 91.8733 312.956C91.1533 312.236 90.7573 311.192 90.7573 309.95C90.7573 308.87 91.0993 307.952 91.6753 307.268C92.5033 306.26 93.7633 305.72 95.1493 305.72C96.1033 305.72 96.9853 305.99 97.6333 306.44C97.7233 306.512 97.7773 306.584 97.7233 306.674L97.3453 307.358C97.2913 307.466 97.2013 307.484 97.0753 307.412C96.4453 307.016 95.8333 306.854 95.1493 306.854C94.2133 306.854 93.3673 307.214 92.8093 307.88C92.3593 308.402 92.0893 309.104 92.0893 309.95C92.0893 310.886 92.3953 311.66 92.9173 312.218C93.4393 312.776 94.2133 313.082 95.1673 313.082ZM106.88 306.098L103.64 314.432C103.19 315.566 102.686 316.466 102.074 317.114C101.336 317.834 100.4 318.23 99.1579 318.176C99.0679 318.176 99.0139 318.122 99.0139 318.032V317.042C99.0139 316.97 99.0859 316.916 99.1759 316.916C99.2839 316.916 99.3379 316.934 99.5179 316.934C100.184 316.934 100.742 316.646 101.228 316.106C101.57 315.71 101.912 315.17 102.2 314.486L98.5099 306.098C98.4739 306.008 98.4739 305.864 98.6539 305.864H99.8239C99.9859 305.864 100.058 305.936 100.094 306.062L102.884 312.848L105.404 306.062C105.44 305.936 105.53 305.864 105.674 305.864H106.754C106.934 305.864 106.916 306.008 106.88 306.098ZM107.322 305.864H114.72C114.828 305.864 114.9 305.954 114.9 306.044V306.854C114.9 306.944 114.828 307.034 114.72 307.034H111.678V313.838C111.678 313.928 111.606 314 111.516 314H110.544C110.454 314 110.364 313.928 110.364 313.838V307.034H107.322C107.232 307.034 107.16 306.944 107.16 306.854V306.044C107.16 305.954 107.232 305.864 107.322 305.864ZM117.172 309.95C117.172 310.814 117.46 311.588 117.982 312.146C118.504 312.74 119.278 313.1 120.178 313.1C121.078 313.1 121.852 312.74 122.374 312.146C122.896 311.588 123.184 310.814 123.184 309.95C123.184 309.086 122.896 308.312 122.374 307.754C121.852 307.16 121.078 306.8 120.178 306.8C119.278 306.8 118.504 307.16 117.982 307.754C117.46 308.312 117.172 309.086 117.172 309.95ZM115.876 309.95C115.876 308.726 116.326 307.682 117.082 306.944C117.856 306.17 118.954 305.72 120.178 305.72C121.402 305.72 122.5 306.17 123.274 306.944C124.03 307.682 124.48 308.726 124.48 309.95C124.48 311.174 124.03 312.218 123.274 312.956C122.5 313.73 121.402 314.18 120.178 314.18C118.954 314.18 117.856 313.73 117.082 312.956C116.326 312.218 115.876 311.174 115.876 309.95ZM133.253 306.044V313.838C133.253 313.928 133.181 314 133.091 314H132.119C132.029 314 131.939 313.928 131.939 313.838V310.94C131.291 311.174 130.409 311.39 129.563 311.39C128.501 311.39 127.709 311.156 127.205 310.67C126.719 310.184 126.485 309.464 126.485 308.474V306.044C126.485 305.954 126.557 305.864 126.647 305.864H127.619C127.709 305.864 127.799 305.954 127.799 306.044V308.474C127.799 309.086 127.943 309.536 128.231 309.824C128.537 310.166 129.023 310.292 129.671 310.292C130.517 310.292 131.363 310.076 131.939 309.86V306.044C131.939 305.954 132.029 305.864 132.119 305.864H133.091C133.181 305.864 133.253 305.954 133.253 306.044ZM142.121 305.864H143.075C143.165 305.864 143.255 305.954 143.255 306.044V313.838C143.255 313.928 143.165 314 143.075 314H142.121C142.031 314 141.941 313.928 141.941 313.838V310.49H137.153V313.838C137.153 313.928 137.081 314 136.973 314H136.019C135.929 314 135.839 313.928 135.839 313.838V306.044C135.839 305.954 135.929 305.864 136.019 305.864H136.973C137.081 305.864 137.153 305.954 137.153 306.044V309.338H141.941V306.044C141.941 305.954 142.031 305.864 142.121 305.864ZM148.721 306.782C147.695 306.782 146.939 307.124 146.255 307.52C146.129 307.592 146.039 307.556 146.003 307.466L145.697 306.8C145.643 306.692 145.661 306.638 145.787 306.566C146.615 306.008 147.767 305.72 148.883 305.72C149.657 305.72 150.611 305.864 151.259 306.602C151.673 307.07 151.925 307.754 151.925 308.798V313.838C151.925 313.928 151.853 314 151.763 314H150.917C150.827 314 150.755 313.928 150.755 313.838V313.55H150.683C149.855 314.036 149.135 314.18 148.235 314.18C147.497 314.18 146.777 314 146.219 313.604C145.679 313.208 145.301 312.614 145.301 311.786C145.301 310.67 145.985 310.04 146.975 309.662C148.073 309.248 149.531 309.14 150.611 309.086V308.816C150.611 308.096 150.485 307.664 150.197 307.322C149.837 306.908 149.261 306.782 148.721 306.782ZM148.613 313.136C149.297 313.136 149.981 312.938 150.611 312.614V310.076C149.765 310.112 148.757 310.166 147.929 310.4C147.155 310.598 146.561 310.994 146.561 311.714C146.561 312.722 147.605 313.136 148.613 313.136ZM156.778 305.864H160.126C160.216 305.864 160.288 305.954 160.288 306.044V313.838C160.288 313.928 160.216 314 160.126 314H159.19C159.1 314 159.028 313.928 159.028 313.838V310.958H157.084L154.942 313.874C154.87 313.982 154.798 314 154.672 314H153.718C153.556 314 153.556 313.892 153.628 313.748L155.95 310.688C155.428 310.598 154.924 310.454 154.528 310.094C154.096 309.734 153.826 309.176 153.826 308.384C153.826 307.322 154.294 306.62 155.014 306.242C155.5 305.99 156.112 305.864 156.778 305.864ZM159.028 306.944H156.922C156.382 306.944 155.878 307.034 155.536 307.322C155.284 307.556 155.122 307.898 155.122 308.402C155.122 308.96 155.32 309.338 155.626 309.554C155.968 309.806 156.472 309.896 156.994 309.896H159.028V306.944ZM168.307 309.95C168.307 310.814 168.595 311.588 169.117 312.146C169.639 312.74 170.413 313.1 171.313 313.1C172.213 313.1 172.987 312.74 173.509 312.146C174.031 311.588 174.319 310.814 174.319 309.95C174.319 309.086 174.031 308.312 173.509 307.754C172.987 307.16 172.213 306.8 171.313 306.8C170.413 306.8 169.639 307.16 169.117 307.754C168.595 308.312 168.307 309.086 168.307 309.95ZM167.011 309.95C167.011 308.726 167.461 307.682 168.217 306.944C168.991 306.17 170.089 305.72 171.313 305.72C172.537 305.72 173.635 306.17 174.409 306.944C175.165 307.682 175.615 308.726 175.615 309.95C175.615 311.174 175.165 312.218 174.409 312.956C173.635 313.73 172.537 314.18 171.313 314.18C170.089 314.18 168.991 313.73 168.217 312.956C167.461 312.218 167.011 311.174 167.011 309.95ZM177.89 305.864H184.712C184.802 305.864 184.892 305.954 184.892 306.044V313.838C184.892 313.928 184.802 314 184.712 314H183.758C183.668 314 183.578 313.928 183.578 313.838V307.034H179.024V313.838C179.024 313.928 178.952 314 178.844 314H177.89C177.8 314 177.71 313.928 177.71 313.838V306.044C177.71 305.954 177.8 305.864 177.89 305.864ZM189.392 307.034C189.338 308.456 189.248 310.13 188.906 311.57C188.69 312.452 188.384 313.244 187.916 313.82C187.808 313.964 187.718 314 187.52 314H186.728C186.548 314 186.494 313.874 186.62 313.676C187.088 312.974 187.43 312.182 187.646 311.336C188.006 309.932 188.078 308.348 188.078 306.818V306.08C188.078 305.954 188.168 305.864 188.294 305.864H194.324C194.414 305.864 194.504 305.954 194.504 306.044V313.838C194.504 313.928 194.414 314 194.324 314H193.352C193.262 314 193.19 313.928 193.19 313.838V307.034H189.392ZM199.979 306.782C198.953 306.782 198.197 307.124 197.513 307.52C197.387 307.592 197.297 307.556 197.261 307.466L196.955 306.8C196.901 306.692 196.919 306.638 197.045 306.566C197.873 306.008 199.025 305.72 200.141 305.72C200.915 305.72 201.869 305.864 202.517 306.602C202.931 307.07 203.183 307.754 203.183 308.798V313.838C203.183 313.928 203.111 314 203.021 314H202.175C202.085 314 202.013 313.928 202.013 313.838V313.55H201.941C201.113 314.036 200.393 314.18 199.493 314.18C198.755 314.18 198.035 314 197.477 313.604C196.937 313.208 196.559 312.614 196.559 311.786C196.559 310.67 197.243 310.04 198.233 309.662C199.331 309.248 200.789 309.14 201.869 309.086V308.816C201.869 308.096 201.743 307.664 201.455 307.322C201.095 306.908 200.519 306.782 199.979 306.782ZM199.871 313.136C200.555 313.136 201.239 312.938 201.869 312.614V310.076C201.023 310.112 200.015 310.166 199.187 310.4C198.413 310.598 197.819 310.994 197.819 311.714C197.819 312.722 198.863 313.136 199.871 313.136ZM204.67 305.864H212.068C212.176 305.864 212.248 305.954 212.248 306.044V306.854C212.248 306.944 212.176 307.034 212.068 307.034H209.026V313.838C209.026 313.928 208.954 314 208.864 314H207.892C207.802 314 207.712 313.928 207.712 313.838V307.034H204.67C204.58 307.034 204.508 306.944 204.508 306.854V306.044C204.508 305.954 204.58 305.864 204.67 305.864ZM216.59 306.782C215.564 306.782 214.808 307.124 214.124 307.52C213.998 307.592 213.908 307.556 213.872 307.466L213.566 306.8C213.512 306.692 213.53 306.638 213.656 306.566C214.484 306.008 215.636 305.72 216.752 305.72C217.526 305.72 218.48 305.864 219.128 306.602C219.542 307.07 219.794 307.754 219.794 308.798V313.838C219.794 313.928 219.722 314 219.632 314H218.786C218.696 314 218.624 313.928 218.624 313.838V313.55H218.552C217.724 314.036 217.004 314.18 216.104 314.18C215.366 314.18 214.646 314 214.088 313.604C213.548 313.208 213.17 312.614 213.17 311.786C213.17 310.67 213.854 310.04 214.844 309.662C215.942 309.248 217.4 309.14 218.48 309.086V308.816C218.48 308.096 218.354 307.664 218.066 307.322C217.706 306.908 217.13 306.782 216.59 306.782ZM216.482 313.136C217.166 313.136 217.85 312.938 218.48 312.614V310.076C217.634 310.112 216.626 310.166 215.798 310.4C215.024 310.598 214.43 310.994 214.43 311.714C214.43 312.722 215.474 313.136 216.482 313.136ZM88.9502 333.098L85.7102 341.432C85.2602 342.566 84.7562 343.466 84.1442 344.114C83.4062 344.834 82.4702 345.23 81.2282 345.176C81.1382 345.176 81.0842 345.122 81.0842 345.032V344.042C81.0842 343.97 81.1562 343.916 81.2462 343.916C81.3542 343.916 81.4082 343.934 81.5882 343.934C82.2542 343.934 82.8122 343.646 83.2982 343.106C83.6402 342.71 83.9822 342.17 84.2702 341.486L80.5802 333.098C80.5442 333.008 80.5442 332.864 80.7242 332.864H81.8942C82.0562 332.864 82.1282 332.936 82.1642 333.062L84.9542 339.848L87.4742 333.062C87.5102 332.936 87.6002 332.864 87.7442 332.864H88.8242C89.0042 332.864 88.9862 333.008 88.9502 333.098ZM95.0804 339.506H94.5044C94.3604 339.506 94.3064 339.47 94.2164 339.326L91.6604 335.132V340.838C91.6604 340.928 91.5704 341 91.4804 341H90.5444C90.4544 341 90.3644 340.928 90.3644 340.838V333.044C90.3644 332.954 90.4544 332.864 90.5444 332.864H91.4984C91.6424 332.864 91.7144 332.882 91.8224 333.062L94.7924 338.03L97.7624 333.062C97.8524 332.882 97.9244 332.864 98.0684 332.864H99.0404C99.1484 332.864 99.2204 332.954 99.2204 333.044V340.838C99.2204 340.928 99.1484 341 99.0404 341H98.1044C98.0144 341 97.9244 340.928 97.9244 340.838V335.132L95.3684 339.326C95.2964 339.47 95.2244 339.506 95.0804 339.506ZM108.09 332.864H109.044C109.134 332.864 109.224 332.954 109.224 333.044V340.838C109.224 340.928 109.134 341 109.044 341H108.09C108 341 107.91 340.928 107.91 340.838V337.49H103.122V340.838C103.122 340.928 103.05 341 102.942 341H101.988C101.898 341 101.808 340.928 101.808 340.838V333.044C101.808 332.954 101.898 332.864 101.988 332.864H102.942C103.05 332.864 103.122 332.954 103.122 333.044V336.338H107.91V333.044C107.91 332.954 108 332.864 108.09 332.864ZM117.372 338.714C117.372 338.318 117.264 338.012 117.012 337.814C116.688 337.49 116.13 337.364 115.428 337.364H113.124V340.028H115.518C116.094 340.028 116.616 339.938 116.958 339.668C117.228 339.452 117.372 339.146 117.372 338.714ZM120.126 332.864H121.098C121.188 332.864 121.278 332.954 121.278 333.044V340.838C121.278 340.928 121.188 341 121.098 341H120.126C120.036 341 119.964 340.928 119.964 340.838V333.044C119.964 332.954 120.036 332.864 120.126 332.864ZM113.124 333.044V336.392H115.734C116.706 336.392 117.57 336.626 118.092 337.166C118.452 337.526 118.668 338.03 118.668 338.696C118.668 339.434 118.416 339.974 117.984 340.352C117.462 340.802 116.67 341 115.77 341H111.99C111.9 341 111.81 340.928 111.81 340.838V333.044C111.81 332.954 111.9 332.864 111.99 332.864H112.962C113.052 332.864 113.124 332.954 113.124 333.044ZM122.698 340.73L126.046 336.86L122.86 333.152C122.752 333.008 122.788 332.864 122.968 332.864H124.192C124.336 332.864 124.408 332.936 124.48 333.044L126.856 335.942L129.25 333.044C129.322 332.936 129.376 332.864 129.538 332.864H130.708C130.888 332.864 130.942 333.008 130.816 333.152L127.63 336.77L131.014 340.73C131.122 340.874 131.086 341 130.888 341H129.7C129.556 341 129.484 340.928 129.412 340.856L126.856 337.76L124.282 340.856C124.21 340.946 124.138 341 123.994 341H122.824C122.644 341 122.59 340.856 122.698 340.73ZM144.307 333.8C143.677 333.8 143.317 333.908 142.885 334.178V339.722C143.317 339.992 143.677 340.1 144.307 340.1C144.847 340.1 145.513 339.902 145.999 339.29C146.467 338.696 146.647 337.832 146.647 336.95C146.647 335.888 146.413 335.096 145.999 334.61C145.513 333.998 144.847 333.8 144.307 333.8ZM140.167 340.1C140.779 340.1 141.157 339.992 141.589 339.722V334.178C141.157 333.908 140.779 333.8 140.167 333.8C139.627 333.8 138.943 333.998 138.457 334.61C138.061 335.096 137.809 335.888 137.809 336.95C137.809 337.832 137.989 338.696 138.457 339.29C138.943 339.902 139.627 340.1 140.167 340.1ZM142.885 330.182V333.08C143.371 332.81 143.821 332.72 144.451 332.72C145.351 332.72 146.395 333.062 147.097 333.962C147.619 334.628 147.961 335.618 147.961 336.95C147.961 338.048 147.709 339.146 147.097 339.938C146.395 340.838 145.351 341.18 144.451 341.18C143.821 341.18 143.371 341.09 142.885 340.82V343.754C142.885 343.844 142.813 343.934 142.705 343.934H141.751C141.661 343.934 141.589 343.844 141.589 343.754V340.82C141.103 341.09 140.653 341.18 140.023 341.18C139.123 341.18 138.061 340.838 137.377 339.938C136.765 339.146 136.513 338.048 136.513 336.95C136.513 335.618 136.855 334.628 137.377 333.962C138.061 333.062 139.123 332.72 140.023 332.72C140.653 332.72 141.103 332.81 141.589 333.08V330.182C141.589 330.092 141.661 330.02 141.751 330.02H142.705C142.813 330.02 142.885 330.092 142.885 330.182ZM157.206 333.098L153.966 341.432C153.516 342.566 153.012 343.466 152.4 344.114C151.662 344.834 150.726 345.23 149.484 345.176C149.394 345.176 149.34 345.122 149.34 345.032V344.042C149.34 343.97 149.412 343.916 149.502 343.916C149.61 343.916 149.664 343.934 149.844 343.934C150.51 343.934 151.068 343.646 151.554 343.106C151.896 342.71 152.238 342.17 152.526 341.486L148.836 333.098C148.8 333.008 148.8 332.864 148.98 332.864H150.15C150.312 332.864 150.384 332.936 150.42 333.062L153.21 339.848L155.73 333.062C155.766 332.936 155.856 332.864 156 332.864H157.08C157.26 332.864 157.242 333.008 157.206 333.098ZM164.902 332.864H165.856C165.946 332.864 166.036 332.954 166.036 333.044V340.838C166.036 340.928 165.946 341 165.856 341H164.902C164.812 341 164.722 340.928 164.722 340.838V337.49H159.934V340.838C159.934 340.928 159.862 341 159.754 341H158.8C158.71 341 158.62 340.928 158.62 340.838V333.044C158.62 332.954 158.71 332.864 158.8 332.864H159.754C159.862 332.864 159.934 332.954 159.934 333.044V336.338H164.722V333.044C164.722 332.954 164.812 332.864 164.902 332.864ZM174.346 332.864H175.48C175.642 332.864 175.696 333.008 175.552 333.17L172.24 336.842L175.66 340.712C175.804 340.856 175.75 341 175.588 341H174.436C174.274 341 174.202 340.964 174.094 340.838L171.124 337.49H169.936V340.838C169.936 340.928 169.864 341 169.756 341H168.802C168.712 341 168.622 340.928 168.622 340.838V333.044C168.622 332.954 168.712 332.864 168.802 332.864H169.756C169.864 332.864 169.936 332.954 169.936 333.044V336.338H171.124L174.022 333.044C174.112 332.936 174.202 332.864 174.346 332.864ZM177.394 340.838V333.044C177.394 332.954 177.484 332.864 177.574 332.864H178.528C178.636 332.864 178.708 332.954 178.708 333.044V339.848H183.262V333.044C183.262 332.954 183.334 332.864 183.424 332.864H184.396C184.486 332.864 184.576 332.954 184.576 333.044V339.848H186.124C186.214 339.848 186.286 339.92 186.286 340.01V343.736C186.286 343.844 186.214 343.916 186.124 343.916H185.17C185.08 343.916 184.99 343.844 184.99 343.736V341H177.574C177.484 341 177.394 340.928 177.394 340.838ZM195.805 333.044V340.838C195.805 340.928 195.733 341 195.643 341H194.671C194.581 341 194.491 340.928 194.491 340.838V335.168L189.307 340.136V340.838C189.307 340.928 189.235 341 189.145 341H188.173C188.083 341 187.993 340.928 187.993 340.838V333.044C187.993 332.954 188.083 332.864 188.173 332.864H189.145C189.235 332.864 189.307 332.954 189.307 333.044V338.75L194.491 333.764V333.044C194.491 332.954 194.581 332.864 194.671 332.864H195.643C195.733 332.864 195.805 332.954 195.805 333.044ZM206.212 333.044V340.838C206.212 340.928 206.14 341 206.05 341H205.078C204.988 341 204.898 340.928 204.898 340.838V335.168L199.714 340.136V340.838C199.714 340.928 199.642 341 199.552 341H198.58C198.49 341 198.4 340.928 198.4 340.838V333.044C198.4 332.954 198.49 332.864 198.58 332.864H199.552C199.642 332.864 199.714 332.954 199.714 333.044V338.75L204.898 333.764V333.044C204.898 332.954 204.988 332.864 205.078 332.864H206.05C206.14 332.864 206.212 332.954 206.212 333.044ZM202.306 329.48C203.224 329.48 203.692 328.958 203.764 328.184C203.782 328.058 203.854 328.004 203.962 328.004H204.412C204.556 328.004 204.628 328.094 204.628 328.184C204.628 329.426 203.8 330.452 202.306 330.452C200.812 330.452 199.966 329.426 199.966 328.184C199.966 328.094 200.038 328.004 200.182 328.004H200.65C200.758 328.004 200.83 328.058 200.848 328.184C200.902 328.958 201.388 329.48 202.306 329.48Z" fill="#192B4D"/>
</g>
<defs>
<linearGradient id="paint0_linear_1_906" x1="0" y1="0" x2="317.927" y2="363.85" gradientUnits="userSpaceOnUse">
<stop stop-color="#FF8251"/>
<stop offset="1" stop-color="#FBC300"/>
</linearGradient>
<clipPath id="clip0_1_906">
<rect width="288" height="390" fill="white"/>
</clipPath>
</defs>
</svg>
