<svg width="160" height="152" viewBox="0 0 160 152" fill="none" xmlns="http://www.w3.org/2000/svg">
<g filter="url(#filter0_d_165_1733)">
<rect x="16" width="128" height="128" rx="32" fill="white" shape-rendering="crispEdges"/>
<path d="M107.516 83.9304C106.975 83.9304 106.469 83.6414 106.198 83.1357C105.819 82.4133 106.108 81.5283 106.812 81.149C106.956 81.0587 109.323 79.5777 109.323 74.2857C109.323 72.1726 108.871 70.7277 107.986 70.1136C106.938 69.3731 105.421 69.8788 105.403 69.8788C104.988 70.0233 104.5 69.9691 104.139 69.7343C103.76 69.4995 103.507 69.1022 103.453 68.6687C103.435 68.4881 101.105 51.0771 89.2023 51.0771C75.7467 51.0771 71.0146 49.1445 64.7835 43.4191C58.4621 46.6521 55.7709 54.8338 56.5837 68.3797C56.6198 68.8674 56.385 69.355 55.9877 69.6621C55.5903 69.9691 55.0666 70.0413 54.597 69.8788C54.597 69.8788 53.0618 69.3731 52.0142 70.1136C51.1473 70.7277 50.6957 72.1726 50.6957 74.2857C50.6957 79.6319 53.0979 81.0767 53.2062 81.149C53.9106 81.5463 54.1635 82.4494 53.7842 83.1538C53.4049 83.8582 52.5199 84.1291 51.8155 83.7679C51.653 83.6776 47.7337 81.5644 47.7337 74.2857C47.7337 71.107 48.6006 68.8854 50.3345 67.6753C51.4001 66.9348 52.6825 66.7542 53.5313 66.7542C52.9895 52.2872 56.5837 43.6178 64.4945 40.2945C65.0364 40.0597 65.6685 40.1862 66.0839 40.5835C72.1344 46.327 76.126 48.115 89.2023 48.115C101.502 48.115 105.223 62.0222 106.144 66.7723C107.173 66.7 108.51 66.8445 109.702 67.6934C111.436 68.9035 112.303 71.125 112.303 74.3038C112.303 81.5825 108.383 83.6956 108.221 83.7859C107.968 83.8943 107.733 83.9304 107.516 83.9304Z" fill="#FBC300"/>
<path d="M106.415 69.9692C106.071 69.9692 105.728 69.8427 105.439 69.6079C104.825 69.0661 104.753 68.1269 105.295 67.5128C105.331 67.4587 109.828 61.968 109.828 47.6636C109.828 33.0882 94.3497 23.4254 84.1271 23.4254C73.5251 23.4254 69.353 30.0178 69.2988 30.09C68.9918 30.5957 68.3957 30.8666 67.7817 30.7763C65.4156 30.379 60.0876 31.0653 55.8432 34.6595C52.0323 37.8924 50.1178 42.5342 50.1358 48.4583C51.1292 62.6905 57.3603 67.2239 57.4326 67.26C58.1008 67.7296 58.2634 68.6507 57.8119 69.319C57.3423 69.9872 56.4392 70.1678 55.7709 69.6982C55.4639 69.4815 48.2936 64.4605 47.1919 48.5486C47.1557 39.9153 50.8583 35.0027 53.9468 32.3838C58.0828 28.8799 63.5734 27.4531 67.3482 27.724C68.9556 25.6831 74.067 20.4453 84.1271 20.4453C95.8127 20.4453 112.808 31.0472 112.808 47.6455C112.808 63.1962 107.751 69.1925 107.534 69.4273C107.245 69.8066 106.83 69.9692 106.415 69.9692Z" fill="#FBC300"/>
<path d="M126.101 81.2213H33.8807C33.068 81.2213 32.3997 80.5531 32.3997 79.7403C32.3997 78.9275 33.068 78.2593 33.8807 78.2593H126.101C126.914 78.2593 127.582 78.9275 127.582 79.7403C127.582 80.5531 126.932 81.2213 126.101 81.2213Z" fill="#FBC300"/>
<path d="M104.482 86.2423C104.392 86.2423 104.301 86.2423 104.211 86.2243C103.398 86.0798 102.875 85.3031 103.019 84.4904C103.308 82.9371 103.453 81.3297 103.453 79.7403C103.453 78.9275 104.121 78.2593 104.934 78.2593C105.746 78.2593 106.415 78.9275 106.415 79.7403C106.415 81.5103 106.252 83.2984 105.945 85.0322C105.801 85.7366 105.186 86.2423 104.482 86.2423Z" fill="#FBC300"/>
<path d="M104.211 86.2244C103.416 86.0799 102.874 85.3033 103.019 84.5086C103.163 83.7139 103.94 83.1721 104.734 83.3166C105.529 83.461 106.071 84.2377 105.927 85.0324C105.8 85.7368 105.186 86.2425 104.482 86.2425C104.391 86.2425 104.301 86.2244 104.211 86.2244Z" fill="#FBC300"/>
<path d="M80.0087 107.519C78.2207 107.519 76.4507 107.302 74.6987 106.959C74.0124 106.814 73.5067 106.182 73.5428 105.514C73.5428 105.387 73.5428 105.297 73.5789 105.207C73.7234 104.412 74.5362 103.87 75.3309 104.051C78.329 104.701 81.4717 104.701 84.6505 104.051C84.6866 104.051 84.6866 104.051 84.6866 104.051C85.5174 103.87 86.294 104.412 86.4746 105.171C86.5108 105.297 86.5108 105.405 86.5108 105.46C86.5108 106.164 86.0412 106.796 85.3187 106.941C83.5668 107.302 81.7968 107.519 80.0087 107.519ZM65.8848 102.913C65.5959 102.913 65.2888 102.823 65.0179 102.606C62.2003 100.583 59.7982 98.0183 57.9379 95.0202C57.9018 94.984 57.8837 94.966 57.8476 94.8937C57.8476 94.8576 57.8115 94.8576 57.8115 94.8395C57.685 94.6409 57.5947 94.3699 57.5947 94.1351C57.5947 93.5933 57.8656 93.1237 58.2991 92.8528C58.9493 92.4374 59.9066 92.6541 60.322 93.3043C60.322 93.3043 60.3581 93.3043 60.3581 93.3405C60.3942 93.3766 60.3942 93.3946 60.4123 93.4308C62.11 96.1219 64.2413 98.4157 66.7518 100.222C67.1311 100.511 67.3478 100.926 67.3478 101.414C67.3839 101.739 67.2575 102.028 67.0769 102.299C66.806 102.678 66.3725 102.913 65.8848 102.913ZM94.0965 102.877C93.6269 102.877 93.1754 102.678 92.9045 102.281C92.6877 102.01 92.6155 101.721 92.6155 101.396C92.6155 100.926 92.8503 100.475 93.2295 100.204C95.7762 98.3615 97.9074 96.0135 99.6413 93.2863C100.057 92.6361 101.014 92.4013 101.664 92.8167C102.369 93.2682 102.585 94.1532 102.17 94.8576C100.273 97.9099 97.8352 100.511 94.9634 102.588C94.7286 102.805 94.4216 102.877 94.0965 102.877ZM55.5177 86.2785C54.8133 86.2785 54.1812 85.7728 54.0728 85.0684C54.0367 85.0323 54.0367 85.0142 54.0367 84.9781C53.9102 84.1834 54.4521 83.4429 55.2468 83.2984C56.0415 83.1539 56.8181 83.7138 56.9626 84.4905V84.5446C56.9987 84.635 56.9987 84.7253 56.9987 84.8336C56.9987 85.52 56.4569 86.134 55.7886 86.2605C55.6983 86.2785 55.608 86.2785 55.5177 86.2785Z" fill="#FBC300"/>
<path d="M55.5 86.2423C54.7956 86.2423 54.1815 85.7366 54.0371 85.0322C53.73 83.2984 53.5675 81.5284 53.5675 79.7403C53.5675 78.9275 54.2357 78.2593 55.0485 78.2593C55.8612 78.2593 56.5295 78.9275 56.5295 79.7403C56.5295 81.3477 56.674 82.9371 56.963 84.4904C57.1075 85.3031 56.5837 86.0617 55.7709 86.2243C55.6806 86.2423 55.5903 86.2423 55.5 86.2423Z" fill="#FBC300"/>
<path d="M80.0814 96.2664C77.3902 96.2664 74.7533 95.851 72.2067 95.0202C71.43 94.7673 70.9966 93.9184 71.2494 93.1418C71.5023 92.3652 72.3512 91.9497 73.1278 92.1845C77.5709 93.6294 82.4293 93.6656 86.8905 92.2387C87.6671 92.0039 88.4979 92.4193 88.7508 93.196C89.0036 93.9726 88.5702 94.8034 87.7935 95.0563C85.3011 95.851 82.7002 96.2664 80.0814 96.2664Z" fill="#FBC300"/>
<path d="M90.9904 74.9901C90.1776 74.9901 89.5093 74.3219 89.5093 73.5091V68.4881C89.5093 67.6753 90.1776 67.0071 90.9904 67.0071C91.8031 67.0071 92.4714 67.6753 92.4714 68.4881V73.5091C92.4894 74.3219 91.8212 74.9901 90.9904 74.9901Z" fill="#FBC300"/>
<path d="M68.9918 74.9901C68.179 74.9901 67.5107 74.3219 67.5107 73.5091V68.4881C67.5107 67.6753 68.179 67.0071 68.9918 67.0071C69.8045 67.0071 70.4728 67.6753 70.4728 68.4881V73.5091C70.4728 74.3219 69.8045 74.9901 68.9918 74.9901Z" fill="#FBC300"/>
</g>
<defs>
<filter id="filter0_d_165_1733" x="0" y="-8" width="160" height="160" filterUnits="userSpaceOnUse" color-interpolation-filters="sRGB">
<feFlood flood-opacity="0" result="BackgroundImageFix"/>
<feColorMatrix in="SourceAlpha" type="matrix" values="0 0 0 0 0 0 0 0 0 0 0 0 0 0 0 0 0 0 127 0" result="hardAlpha"/>
<feOffset dy="8"/>
<feGaussianBlur stdDeviation="8"/>
<feComposite in2="hardAlpha" operator="out"/>
<feColorMatrix type="matrix" values="0 0 0 0 0.0416146 0 0 0 0 0.0571496 0 0 0 0 0.383385 0 0 0 0.08 0"/>
<feBlend mode="normal" in2="BackgroundImageFix" result="effect1_dropShadow_165_1733"/>
<feBlend mode="normal" in="SourceGraphic" in2="effect1_dropShadow_165_1733" result="shape"/>
</filter>
</defs>
</svg>
