<svg width="288" height="390" viewBox="0 0 288 390" fill="none" xmlns="http://www.w3.org/2000/svg">
<g clip-path="url(#clip0_1_896)">
<rect x="2" y="2" width="284" height="386" rx="30" fill="white" stroke="#B8BAC6" stroke-width="4"/>
<path d="M80.7248 312.758H81.1208C81.9308 312.758 82.5428 312.596 83.0288 312.236C83.5688 311.858 83.9648 311.318 84.3608 310.616L79.7708 301.994C79.7168 301.868 79.7168 301.742 79.9148 301.742H81.1208C81.2648 301.742 81.3548 301.814 81.4088 301.94L85.0988 309.158L88.5368 301.94C88.5728 301.832 88.6628 301.742 88.8068 301.742H89.9588C90.1388 301.742 90.1388 301.868 90.0848 301.994L85.9988 310.454C85.5308 311.444 84.9908 312.326 84.2708 312.956C83.4428 313.658 82.4528 314 81.2648 314H80.7248C80.6168 314 80.5448 313.928 80.5448 313.838V312.938C80.5448 312.848 80.6168 312.758 80.7248 312.758ZM94.9749 312.506H94.3989C94.2549 312.506 94.2009 312.47 94.1109 312.326L91.5549 308.132V313.838C91.5549 313.928 91.4649 314 91.3749 314H90.4389C90.3489 314 90.2589 313.928 90.2589 313.838V306.044C90.2589 305.954 90.3489 305.864 90.4389 305.864H91.3929C91.5369 305.864 91.6089 305.882 91.7169 306.062L94.6869 311.03L97.6569 306.062C97.7469 305.882 97.8189 305.864 97.9629 305.864H98.9349C99.0429 305.864 99.1149 305.954 99.1149 306.044V313.838C99.1149 313.928 99.0429 314 98.9349 314H97.9989C97.9089 314 97.8189 313.928 97.8189 313.838V308.132L95.2629 312.326C95.1909 312.47 95.1189 312.506 94.9749 312.506ZM107.984 305.864H108.938C109.028 305.864 109.118 305.954 109.118 306.044V313.838C109.118 313.928 109.028 314 108.938 314H107.984C107.894 314 107.804 313.928 107.804 313.838V310.49H103.016V313.838C103.016 313.928 102.944 314 102.836 314H101.882C101.792 314 101.702 313.928 101.702 313.838V306.044C101.702 305.954 101.792 305.864 101.882 305.864H102.836C102.944 305.864 103.016 305.954 103.016 306.044V309.338H107.804V306.044C107.804 305.954 107.894 305.864 107.984 305.864ZM117.266 311.714C117.266 311.318 117.158 311.012 116.906 310.814C116.582 310.49 116.024 310.364 115.322 310.364H113.018V313.028H115.412C115.988 313.028 116.51 312.938 116.852 312.668C117.122 312.452 117.266 312.146 117.266 311.714ZM120.02 305.864H120.992C121.082 305.864 121.172 305.954 121.172 306.044V313.838C121.172 313.928 121.082 314 120.992 314H120.02C119.93 314 119.858 313.928 119.858 313.838V306.044C119.858 305.954 119.93 305.864 120.02 305.864ZM113.018 306.044V309.392H115.628C116.6 309.392 117.464 309.626 117.986 310.166C118.346 310.526 118.562 311.03 118.562 311.696C118.562 312.434 118.31 312.974 117.878 313.352C117.356 313.802 116.564 314 115.664 314H111.884C111.794 314 111.704 313.928 111.704 313.838V306.044C111.704 305.954 111.794 305.864 111.884 305.864H112.856C112.946 305.864 113.018 305.954 113.018 306.044ZM124.645 309.356H129.865C129.829 308.618 129.595 308.006 129.199 307.556C128.785 307.106 128.137 306.782 127.327 306.782C126.427 306.782 125.743 307.106 125.293 307.628C124.915 308.078 124.681 308.708 124.645 309.356ZM127.651 313.1C128.641 313.1 129.433 312.776 130.099 312.38C130.243 312.29 130.333 312.344 130.369 312.416L130.711 313.082C130.765 313.172 130.729 313.244 130.639 313.316C129.973 313.766 128.803 314.18 127.543 314.18C126.193 314.18 125.077 313.712 124.339 312.866C123.655 312.11 123.277 311.066 123.277 309.842C123.277 308.69 123.673 307.646 124.357 306.908C125.041 306.17 126.031 305.72 127.327 305.72C128.641 305.72 129.649 306.242 130.279 307.016C130.873 307.772 131.197 308.834 131.125 310.112C131.125 310.238 131.035 310.31 130.909 310.31H124.645C124.699 310.994 124.933 311.624 125.347 312.11C125.869 312.74 126.661 313.1 127.651 313.1ZM145.081 306.8C144.451 306.8 144.091 306.908 143.659 307.178V312.722C144.091 312.992 144.451 313.1 145.081 313.1C145.621 313.1 146.287 312.902 146.773 312.29C147.241 311.696 147.421 310.832 147.421 309.95C147.421 308.888 147.187 308.096 146.773 307.61C146.287 306.998 145.621 306.8 145.081 306.8ZM140.941 313.1C141.553 313.1 141.931 312.992 142.363 312.722V307.178C141.931 306.908 141.553 306.8 140.941 306.8C140.401 306.8 139.717 306.998 139.231 307.61C138.835 308.096 138.583 308.888 138.583 309.95C138.583 310.832 138.763 311.696 139.231 312.29C139.717 312.902 140.401 313.1 140.941 313.1ZM143.659 303.182V306.08C144.145 305.81 144.595 305.72 145.225 305.72C146.125 305.72 147.169 306.062 147.871 306.962C148.393 307.628 148.735 308.618 148.735 309.95C148.735 311.048 148.483 312.146 147.871 312.938C147.169 313.838 146.125 314.18 145.225 314.18C144.595 314.18 144.145 314.09 143.659 313.82V316.754C143.659 316.844 143.587 316.934 143.479 316.934H142.525C142.435 316.934 142.363 316.844 142.363 316.754V313.82C141.877 314.09 141.427 314.18 140.797 314.18C139.897 314.18 138.835 313.838 138.151 312.938C137.539 312.146 137.287 311.048 137.287 309.95C137.287 308.618 137.629 307.628 138.151 306.962C138.835 306.062 139.897 305.72 140.797 305.72C141.427 305.72 141.877 305.81 142.363 306.08V303.182C142.363 303.092 142.435 303.02 142.525 303.02H143.479C143.587 303.02 143.659 303.092 143.659 303.182ZM157.98 306.098L154.74 314.432C154.29 315.566 153.786 316.466 153.174 317.114C152.436 317.834 151.5 318.23 150.258 318.176C150.168 318.176 150.114 318.122 150.114 318.032V317.042C150.114 316.97 150.186 316.916 150.276 316.916C150.384 316.916 150.438 316.934 150.618 316.934C151.284 316.934 151.842 316.646 152.328 316.106C152.67 315.71 153.012 315.17 153.3 314.486L149.61 306.098C149.574 306.008 149.574 305.864 149.754 305.864H150.924C151.086 305.864 151.158 305.936 151.194 306.062L153.984 312.848L156.504 306.062C156.54 305.936 156.63 305.864 156.774 305.864H157.854C158.034 305.864 158.016 306.008 157.98 306.098ZM165.676 305.864H166.63C166.72 305.864 166.81 305.954 166.81 306.044V313.838C166.81 313.928 166.72 314 166.63 314H165.676C165.586 314 165.496 313.928 165.496 313.838V310.49H160.708V313.838C160.708 313.928 160.636 314 160.528 314H159.574C159.484 314 159.394 313.928 159.394 313.838V306.044C159.394 305.954 159.484 305.864 159.574 305.864H160.528C160.636 305.864 160.708 305.954 160.708 306.044V309.338H165.496V306.044C165.496 305.954 165.586 305.864 165.676 305.864ZM175.12 305.864H176.254C176.416 305.864 176.47 306.008 176.326 306.17L173.014 309.842L176.434 313.712C176.578 313.856 176.524 314 176.362 314H175.21C175.048 314 174.976 313.964 174.868 313.838L171.898 310.49H170.71V313.838C170.71 313.928 170.638 314 170.53 314H169.576C169.486 314 169.396 313.928 169.396 313.838V306.044C169.396 305.954 169.486 305.864 169.576 305.864H170.53C170.638 305.864 170.71 305.954 170.71 306.044V309.338H171.898L174.796 306.044C174.886 305.936 174.976 305.864 175.12 305.864ZM178.167 313.838V306.044C178.167 305.954 178.257 305.864 178.347 305.864H179.301C179.409 305.864 179.481 305.954 179.481 306.044V312.848H184.035V306.044C184.035 305.954 184.107 305.864 184.197 305.864H185.169C185.259 305.864 185.349 305.954 185.349 306.044V312.848H186.897C186.987 312.848 187.059 312.92 187.059 313.01V316.736C187.059 316.844 186.987 316.916 186.897 316.916H185.943C185.853 316.916 185.763 316.844 185.763 316.736V314H178.347C178.257 314 178.167 313.928 178.167 313.838ZM196.579 306.044V313.838C196.579 313.928 196.507 314 196.417 314H195.445C195.355 314 195.265 313.928 195.265 313.838V308.168L190.081 313.136V313.838C190.081 313.928 190.009 314 189.919 314H188.947C188.857 314 188.767 313.928 188.767 313.838V306.044C188.767 305.954 188.857 305.864 188.947 305.864H189.919C190.009 305.864 190.081 305.954 190.081 306.044V311.75L195.265 306.764V306.044C195.265 305.954 195.355 305.864 195.445 305.864H196.417C196.507 305.864 196.579 305.954 196.579 306.044ZM206.985 306.044V313.838C206.985 313.928 206.913 314 206.823 314H205.851C205.761 314 205.671 313.928 205.671 313.838V308.168L200.487 313.136V313.838C200.487 313.928 200.415 314 200.325 314H199.353C199.263 314 199.173 313.928 199.173 313.838V306.044C199.173 305.954 199.263 305.864 199.353 305.864H200.325C200.415 305.864 200.487 305.954 200.487 306.044V311.75L205.671 306.764V306.044C205.671 305.954 205.761 305.864 205.851 305.864H206.823C206.913 305.864 206.985 305.954 206.985 306.044ZM102.456 332.864H103.41C103.5 332.864 103.59 332.954 103.59 333.044V340.838C103.59 340.928 103.5 341 103.41 341H102.456C102.366 341 102.276 340.928 102.276 340.838V337.49H97.4879V340.838C97.4879 340.928 97.4159 341 97.3079 341H96.3539C96.2639 341 96.1739 340.928 96.1739 340.838V333.044C96.1739 332.954 96.2639 332.864 96.3539 332.864H97.3079C97.4159 332.864 97.4879 332.954 97.4879 333.044V336.338H102.276V333.044C102.276 332.954 102.366 332.864 102.456 332.864ZM107.058 336.356H112.278C112.242 335.618 112.008 335.006 111.612 334.556C111.198 334.106 110.55 333.782 109.74 333.782C108.84 333.782 108.156 334.106 107.706 334.628C107.328 335.078 107.094 335.708 107.058 336.356ZM110.064 340.1C111.054 340.1 111.846 339.776 112.512 339.38C112.656 339.29 112.746 339.344 112.782 339.416L113.124 340.082C113.178 340.172 113.142 340.244 113.052 340.316C112.386 340.766 111.216 341.18 109.956 341.18C108.606 341.18 107.49 340.712 106.752 339.866C106.068 339.11 105.69 338.066 105.69 336.842C105.69 335.69 106.086 334.646 106.77 333.908C107.454 333.17 108.444 332.72 109.74 332.72C111.054 332.72 112.062 333.242 112.692 334.016C113.286 334.772 113.61 335.834 113.538 337.112C113.538 337.238 113.448 337.31 113.322 337.31H107.058C107.112 337.994 107.346 338.624 107.76 339.11C108.282 339.74 109.074 340.1 110.064 340.1ZM123.805 333.044V339.848H125.353C125.443 339.848 125.533 339.92 125.533 340.01V343.772C125.533 343.862 125.443 343.934 125.353 343.934H124.399C124.309 343.934 124.237 343.862 124.237 343.772V341H116.101V343.772C116.101 343.862 116.011 343.934 115.921 343.934H114.967C114.877 343.934 114.787 343.862 114.787 343.772V340.01C114.787 339.92 114.877 339.848 114.967 339.848H116.281C116.749 339.074 117.055 338.138 117.235 337.148C117.451 336.014 117.505 334.754 117.523 333.584V333.044C117.523 332.954 117.595 332.864 117.685 332.864H123.643C123.733 332.864 123.805 332.954 123.805 333.044ZM118.801 334.034C118.765 335.15 118.693 336.338 118.477 337.454C118.297 338.318 118.027 339.128 117.613 339.848H122.491V334.034H118.801ZM128.062 336.95C128.062 337.814 128.35 338.588 128.872 339.146C129.394 339.74 130.168 340.1 131.068 340.1C131.968 340.1 132.742 339.74 133.264 339.146C133.786 338.588 134.074 337.814 134.074 336.95C134.074 336.086 133.786 335.312 133.264 334.754C132.742 334.16 131.968 333.8 131.068 333.8C130.168 333.8 129.394 334.16 128.872 334.754C128.35 335.312 128.062 336.086 128.062 336.95ZM126.766 336.95C126.766 335.726 127.216 334.682 127.972 333.944C128.746 333.17 129.844 332.72 131.068 332.72C132.292 332.72 133.39 333.17 134.164 333.944C134.92 334.682 135.37 335.726 135.37 336.95C135.37 338.174 134.92 339.218 134.164 339.956C133.39 340.73 132.292 341.18 131.068 341.18C129.844 341.18 128.746 340.73 127.972 339.956C127.216 339.218 126.766 338.174 126.766 336.95ZM141.389 340.082C142.073 340.082 142.721 339.956 143.351 339.578C143.477 339.488 143.585 339.524 143.621 339.614L143.981 340.28C144.035 340.37 143.981 340.442 143.891 340.514C143.243 340.946 142.307 341.18 141.353 341.18C139.985 341.18 138.851 340.748 138.095 339.956C137.375 339.236 136.979 338.192 136.979 336.95C136.979 335.87 137.321 334.952 137.897 334.268C138.725 333.26 139.985 332.72 141.371 332.72C142.325 332.72 143.207 332.99 143.855 333.44C143.945 333.512 143.999 333.584 143.945 333.674L143.567 334.358C143.513 334.466 143.423 334.484 143.297 334.412C142.667 334.016 142.055 333.854 141.371 333.854C140.435 333.854 139.589 334.214 139.031 334.88C138.581 335.402 138.311 336.104 138.311 336.95C138.311 337.886 138.617 338.66 139.139 339.218C139.661 339.776 140.435 340.082 141.389 340.082ZM144.966 332.864H152.364C152.472 332.864 152.544 332.954 152.544 333.044V333.854C152.544 333.944 152.472 334.034 152.364 334.034H149.322V340.838C149.322 340.928 149.25 341 149.16 341H148.188C148.098 341 148.008 340.928 148.008 340.838V334.034H144.966C144.876 334.034 144.804 333.944 144.804 333.854V333.044C144.804 332.954 144.876 332.864 144.966 332.864ZM161.17 333.098L157.93 341.432C157.48 342.566 156.976 343.466 156.364 344.114C155.626 344.834 154.69 345.23 153.448 345.176C153.358 345.176 153.304 345.122 153.304 345.032V344.042C153.304 343.97 153.376 343.916 153.466 343.916C153.574 343.916 153.628 343.934 153.808 343.934C154.474 343.934 155.032 343.646 155.518 343.106C155.86 342.71 156.202 342.17 156.49 341.486L152.8 333.098C152.764 333.008 152.764 332.864 152.944 332.864H154.114C154.276 332.864 154.348 332.936 154.384 333.062L157.174 339.848L159.694 333.062C159.73 332.936 159.82 332.864 159.964 332.864H161.044C161.224 332.864 161.206 333.008 161.17 333.098ZM162.764 332.864H169.586C169.676 332.864 169.766 332.954 169.766 333.044V340.838C169.766 340.928 169.676 341 169.586 341H168.632C168.542 341 168.452 340.928 168.452 340.838V334.034H163.898V340.838C163.898 340.928 163.826 341 163.718 341H162.764C162.674 341 162.584 340.928 162.584 340.838V333.044C162.584 332.954 162.674 332.864 162.764 332.864ZM178.64 332.864H179.594C179.684 332.864 179.774 332.954 179.774 333.044V340.838C179.774 340.928 179.684 341 179.594 341H178.64C178.55 341 178.46 340.928 178.46 340.838V337.49H173.672V340.838C173.672 340.928 173.6 341 173.492 341H172.538C172.448 341 172.358 340.928 172.358 340.838V333.044C172.358 332.954 172.448 332.864 172.538 332.864H173.492C173.6 332.864 173.672 332.954 173.672 333.044V336.338H178.46V333.044C178.46 332.954 178.55 332.864 178.64 332.864ZM187.921 338.714C187.921 338.318 187.813 338.012 187.561 337.814C187.237 337.49 186.679 337.364 185.977 337.364H183.673V340.028H186.067C186.643 340.028 187.165 339.938 187.507 339.668C187.777 339.452 187.921 339.146 187.921 338.714ZM190.675 332.864H191.647C191.737 332.864 191.827 332.954 191.827 333.044V340.838C191.827 340.928 191.737 341 191.647 341H190.675C190.585 341 190.513 340.928 190.513 340.838V333.044C190.513 332.954 190.585 332.864 190.675 332.864ZM183.673 333.044V336.392H186.283C187.255 336.392 188.119 336.626 188.641 337.166C189.001 337.526 189.217 338.03 189.217 338.696C189.217 339.434 188.965 339.974 188.533 340.352C188.011 340.802 187.219 341 186.319 341H182.539C182.449 341 182.359 340.928 182.359 340.838V333.044C182.359 332.954 182.449 332.864 182.539 332.864H183.511C183.601 332.864 183.673 332.954 183.673 333.044Z" fill="#192B4D"/>
<path d="M157.227 195.64C157.227 171.616 147.763 159.136 130.395 159.136C112.923 159.136 103.459 171.616 103.459 195.64C103.459 219.56 112.923 232.04 130.395 232.04C147.763 232.04 157.227 219.56 157.227 195.64ZM142.355 195.64C142.355 203.544 141.315 209.368 139.131 213.216C137.155 216.648 134.243 218.416 130.395 218.416C126.443 218.416 123.531 216.648 121.555 213.216C119.371 209.368 118.227 203.544 118.227 195.64C118.227 187.944 119.371 181.912 121.659 178.064C123.635 174.632 126.547 172.864 130.395 172.864C134.347 172.864 137.155 174.632 139.131 178.064C141.315 181.912 142.355 187.84 142.355 195.64ZM167.763 231V185.304H179.795C185.384 185.304 189.523 186.435 192.211 188.696C194.941 190.957 196.307 194.243 196.307 198.552C196.307 201.453 195.645 203.949 194.323 206.04C193 208.088 191.037 209.667 188.435 210.776C185.875 211.885 182.696 212.44 178.899 212.44H173.523V231H167.763ZM162.195 222.296V218.136H184.083V222.296H162.195ZM162.195 212.44V207.576H176.851V212.44H162.195ZM178.067 207.576C180.669 207.576 182.867 207.299 184.659 206.744C186.493 206.189 187.901 205.272 188.883 203.992C189.864 202.712 190.355 200.963 190.355 198.744C190.355 195.843 189.459 193.688 187.667 192.28C185.875 190.872 183.08 190.168 179.283 190.168H173.523V207.576H178.067Z" fill="#B8BAC6"/>
<path d="M100.487 55.864C100.487 50.824 96.6473 47.44 91.7513 47.44C86.8553 47.44 82.9913 50.8 82.9913 55.864C82.9913 60.928 86.8553 64.24 91.7513 64.24C96.6473 64.24 100.487 60.904 100.487 55.864ZM96.8153 55.864C96.8153 58.792 94.6793 61.024 91.7513 61.024C88.8233 61.024 86.6633 58.816 86.6633 55.864C86.6633 52.936 88.8233 50.68 91.7513 50.68C94.6793 50.68 96.8153 52.936 96.8153 55.864ZM108.541 61.576C107.629 61.576 106.885 61.24 106.381 60.688C105.877 60.16 105.589 59.392 105.589 58.504C105.589 57.664 105.877 56.944 106.357 56.416C106.885 55.84 107.653 55.504 108.541 55.504C109.405 55.504 110.053 55.744 110.821 56.224C111.037 56.344 111.277 56.296 111.349 56.128L112.285 54.376C112.381 54.184 112.309 54.016 112.141 53.896C111.253 53.272 110.029 52.816 108.541 52.816C106.501 52.816 104.677 53.584 103.549 54.976C102.805 55.888 102.349 57.088 102.349 58.504C102.349 60.136 102.877 61.504 103.789 62.488C104.869 63.616 106.453 64.24 108.469 64.24C109.957 64.24 111.301 63.832 112.189 63.184C112.357 63.064 112.429 62.896 112.333 62.728L111.445 61C111.349 60.808 111.157 60.76 110.917 60.904C110.125 61.36 109.429 61.576 108.541 61.576ZM113.545 53.008C113.329 53.008 113.161 53.152 113.161 53.368V55.432C113.161 55.648 113.329 55.792 113.545 55.792H116.953V63.64C116.953 63.832 117.121 64 117.313 64H119.737C119.953 64 120.121 63.832 120.121 63.64V55.792H123.529C123.721 55.792 123.889 55.648 123.889 55.432V53.368C123.889 53.152 123.721 53.008 123.529 53.008H113.545ZM129.621 55.24C130.173 55.24 130.677 55.384 130.941 55.72C131.181 56.008 131.277 56.416 131.277 56.968V57.208C129.981 57.304 128.253 57.496 126.933 58.072C125.781 58.6 124.941 59.44 124.941 60.856C124.941 61.936 125.349 62.8 126.021 63.352C126.669 63.928 127.581 64.24 128.565 64.24C129.669 64.24 130.509 64.072 131.493 63.448H131.589V63.64C131.589 63.832 131.757 64 131.973 64H134.085C134.277 64 134.445 63.832 134.445 63.64V56.968C134.445 55.576 134.085 54.712 133.485 54.04C132.549 53.008 131.109 52.792 130.005 52.792C128.277 52.792 126.645 53.296 125.541 53.992C125.325 54.136 125.301 54.256 125.397 54.472L126.093 55.984C126.213 56.248 126.381 56.248 126.621 56.104C127.437 55.648 128.493 55.24 129.621 55.24ZM129.597 61.888C128.709 61.888 127.965 61.528 127.965 60.76C127.965 59.584 129.837 59.392 131.277 59.344V61.432C130.725 61.768 130.149 61.888 129.597 61.888ZM141.341 55.792H144.893V63.64C144.893 63.832 145.061 64 145.253 64H147.677C147.893 64 148.037 63.832 148.037 63.64V53.368C148.037 53.152 147.893 53.008 147.677 53.008H138.557C138.365 53.008 138.197 53.176 138.197 53.368V54.664C138.197 56.776 138.101 58.552 137.693 60.208C137.405 61.24 136.997 62.248 136.373 63.256C136.109 63.736 136.277 64 136.661 64H138.653C139.061 64 139.253 63.928 139.517 63.616C140.117 62.848 140.501 61.84 140.789 60.712C141.125 59.224 141.269 57.472 141.341 55.792ZM154.33 53.368C154.33 53.152 154.162 53.008 153.97 53.008H151.522C151.306 53.008 151.162 53.152 151.162 53.368V63.64C151.162 63.832 151.306 64 151.522 64H156.874C158.122 64 159.226 63.688 159.922 63.04C160.522 62.488 160.906 61.72 160.906 60.664C160.906 59.728 160.594 58.984 160.114 58.432C159.394 57.664 158.218 57.28 156.874 57.28H154.33V53.368ZM157.786 60.664C157.786 61 157.666 61.24 157.474 61.384C157.162 61.648 156.682 61.696 156.202 61.696H154.33V59.584H156.058C156.754 59.584 157.21 59.704 157.498 59.944C157.69 60.112 157.786 60.352 157.786 60.664ZM171.556 53.008C171.34 53.008 171.196 53.152 171.196 53.368V57.064H166.54V53.368C166.54 53.152 166.372 53.008 166.18 53.008H163.756C163.54 53.008 163.396 53.152 163.396 53.368V63.64C163.396 63.832 163.54 64 163.756 64H166.18C166.372 64 166.54 63.832 166.54 63.64V59.824H171.196V63.64C171.196 63.832 171.34 64 171.556 64H173.956C174.172 64 174.316 63.832 174.316 63.64V53.368C174.316 53.152 174.172 53.008 173.956 53.008H171.556ZM184.059 60.664C184.059 61 183.939 61.24 183.747 61.384C183.435 61.648 182.955 61.696 182.475 61.696H180.603V59.584H182.331C183.027 59.584 183.483 59.704 183.771 59.944C183.963 60.112 184.059 60.352 184.059 60.664ZM189.003 53.008C188.787 53.008 188.619 53.152 188.619 53.368V63.64C188.619 63.832 188.787 64 189.003 64H191.451C191.643 64 191.811 63.832 191.811 63.64V53.368C191.811 53.152 191.643 53.008 191.451 53.008H189.003ZM180.603 53.368C180.603 53.152 180.435 53.008 180.243 53.008H177.795C177.579 53.008 177.435 53.152 177.435 53.368V63.64C177.435 63.832 177.579 64 177.795 64H183.147C184.395 64 185.499 63.688 186.195 63.04C186.795 62.488 187.179 61.72 187.179 60.664C187.179 59.728 186.867 58.984 186.387 58.432C185.667 57.664 184.491 57.28 183.147 57.28H180.603V53.368ZM197.583 57.376C197.655 56.824 197.847 56.32 198.183 55.936C198.543 55.528 199.191 55.288 199.911 55.288C200.607 55.288 201.183 55.552 201.543 55.936C201.879 56.344 202.047 56.8 202.071 57.376H197.583ZM200.463 61.72C199.575 61.72 198.807 61.432 198.327 60.928C197.943 60.544 197.727 60.088 197.607 59.464H204.783C204.999 59.464 205.143 59.32 205.143 59.104C205.167 57.424 204.927 55.792 204.135 54.712C203.271 53.536 201.879 52.792 199.887 52.792C198.159 52.792 196.791 53.368 195.855 54.328C194.871 55.336 194.247 56.728 194.247 58.384C194.247 60.136 194.823 61.624 195.855 62.632C196.887 63.664 198.375 64.24 200.223 64.24C201.831 64.24 203.463 63.736 204.351 63.112C204.519 62.992 204.591 62.8 204.519 62.632L203.679 61.072C203.583 60.88 203.391 60.832 203.127 60.976C202.335 61.432 201.519 61.72 200.463 61.72ZM117.217 89.008C116.881 89.008 116.689 89.104 116.521 89.368L113.617 93.064H112.465V89.368C112.465 89.152 112.297 89.008 112.105 89.008H109.657C109.465 89.008 109.297 89.152 109.297 89.368V93.064H108.145L105.241 89.368C105.049 89.104 104.881 89.008 104.545 89.008H101.737C101.401 89.008 101.281 89.272 101.569 89.656L105.481 94.312L101.401 99.352C101.137 99.712 101.233 100 101.545 100H104.473C104.785 100 104.977 99.904 105.169 99.64L108.169 95.824H109.297V99.64C109.297 99.832 109.465 100 109.657 100H112.105C112.297 100 112.465 99.832 112.465 99.64V95.824H113.593L116.593 99.64C116.785 99.904 116.953 100 117.289 100H120.193C120.529 100 120.625 99.712 120.361 99.352L116.281 94.312L120.193 89.656C120.481 89.272 120.361 89.008 120.025 89.008H117.217ZM133.565 89.368C133.565 89.152 133.397 89.008 133.205 89.008H130.757C130.541 89.008 130.397 89.152 130.397 89.368V90.688L125.525 95.056V89.368C125.525 89.152 125.357 89.008 125.165 89.008H122.717C122.501 89.008 122.357 89.152 122.357 89.368V99.64C122.357 99.832 122.501 100 122.717 100H125.165C125.357 100 125.525 99.832 125.525 99.64V98.344L130.397 94V99.64C130.397 99.832 130.541 100 130.757 100H133.205C133.397 100 133.565 99.832 133.565 99.64V89.368ZM135.717 89.008C135.501 89.008 135.333 89.152 135.333 89.368V91.432C135.333 91.648 135.501 91.792 135.717 91.792H139.125V99.64C139.125 99.832 139.293 100 139.485 100H141.909C142.125 100 142.293 99.832 142.293 99.64V91.792H145.701C145.893 91.792 146.061 91.648 146.061 91.432V89.368C146.061 89.152 145.893 89.008 145.701 89.008H135.717ZM150.521 93.376C150.593 92.824 150.785 92.32 151.121 91.936C151.481 91.528 152.129 91.288 152.849 91.288C153.545 91.288 154.121 91.552 154.481 91.936C154.817 92.344 154.985 92.8 155.009 93.376H150.521ZM153.401 97.72C152.513 97.72 151.745 97.432 151.265 96.928C150.881 96.544 150.665 96.088 150.545 95.464H157.721C157.937 95.464 158.081 95.32 158.081 95.104C158.105 93.424 157.865 91.792 157.073 90.712C156.209 89.536 154.817 88.792 152.825 88.792C151.097 88.792 149.729 89.368 148.793 90.328C147.809 91.336 147.185 92.728 147.185 94.384C147.185 96.136 147.761 97.624 148.793 98.632C149.825 99.664 151.313 100.24 153.161 100.24C154.769 100.24 156.401 99.736 157.289 99.112C157.457 98.992 157.529 98.8 157.457 98.632L156.617 97.072C156.521 96.88 156.329 96.832 156.065 96.976C155.273 97.432 154.457 97.72 153.401 97.72ZM164.45 91.792H168.002V99.64C168.002 99.832 168.17 100 168.362 100H170.786C171.002 100 171.146 99.832 171.146 99.64V89.368C171.146 89.152 171.002 89.008 170.786 89.008H161.666C161.474 89.008 161.306 89.176 161.306 89.368V90.664C161.306 92.776 161.21 94.552 160.802 96.208C160.514 97.24 160.106 98.248 159.482 99.256C159.218 99.736 159.386 100 159.77 100H161.762C162.17 100 162.362 99.928 162.626 99.616C163.226 98.848 163.61 97.84 163.898 96.712C164.234 95.224 164.378 93.472 164.45 91.792ZM185.479 89.368C185.479 89.152 185.311 89.008 185.119 89.008H182.671C182.455 89.008 182.311 89.152 182.311 89.368V90.688L177.439 95.056V89.368C177.439 89.152 177.271 89.008 177.079 89.008H174.631C174.415 89.008 174.271 89.152 174.271 89.368V99.64C174.271 99.832 174.415 100 174.631 100H177.079C177.271 100 177.439 99.832 177.439 99.64V98.344L182.311 94V99.64C182.311 99.832 182.455 100 182.671 100H185.119C185.311 100 185.479 99.832 185.479 99.64V89.368Z" fill="#192B4D"/>
</g>
<defs>
<clipPath id="clip0_1_896">
<rect width="288" height="390" fill="white"/>
</clipPath>
</defs>
</svg>
