<svg width="288" height="390" viewBox="0 0 288 390" fill="none" xmlns="http://www.w3.org/2000/svg">
<g clip-path="url(#clip0_1_901)">
<rect x="2" y="2" width="284" height="386" rx="30" fill="white" stroke="#B8BAC6" stroke-width="4"/>
<path d="M78.203 314C78.293 314 78.383 313.928 78.383 313.838V301.922C78.383 301.832 78.293 301.742 78.203 301.742H68.555C68.465 301.742 68.393 301.832 68.393 301.922V313.838C68.393 313.928 68.465 314 68.555 314H69.653C69.743 314 69.833 313.928 69.833 313.838V303.038H76.943V313.838C76.943 313.928 77.015 314 77.105 314H78.203ZM81.8404 309.95C81.8404 309.086 82.1284 308.312 82.6504 307.754C83.1724 307.16 83.9464 306.8 84.8464 306.8C85.7464 306.8 86.5204 307.16 87.0424 307.754C87.5644 308.312 87.8524 309.086 87.8524 309.95C87.8524 310.814 87.5644 311.588 87.0424 312.146C86.5204 312.74 85.7464 313.1 84.8464 313.1C83.9464 313.1 83.1724 312.74 82.6504 312.146C82.1284 311.588 81.8404 310.814 81.8404 309.95ZM80.5444 309.95C80.5444 311.174 80.9944 312.218 81.7504 312.956C82.5244 313.73 83.6224 314.18 84.8464 314.18C86.0704 314.18 87.1684 313.73 87.9424 312.956C88.6984 312.218 89.1484 311.174 89.1484 309.95C89.1484 308.726 88.6984 307.682 87.9424 306.944C87.1684 306.17 86.0704 305.72 84.8464 305.72C83.6224 305.72 82.5244 306.17 81.7504 306.944C80.9944 307.682 80.5444 308.726 80.5444 309.95ZM95.1673 313.082C94.2133 313.082 93.4393 312.776 92.9173 312.218C92.3953 311.66 92.0893 310.886 92.0893 309.95C92.0893 309.104 92.3593 308.402 92.8093 307.88C93.3673 307.214 94.2133 306.854 95.1493 306.854C95.8333 306.854 96.4453 307.016 97.0753 307.412C97.2013 307.484 97.2913 307.466 97.3453 307.358L97.7233 306.674C97.7773 306.584 97.7233 306.512 97.6333 306.44C96.9853 305.99 96.1033 305.72 95.1493 305.72C93.7633 305.72 92.5033 306.26 91.6753 307.268C91.0993 307.952 90.7573 308.87 90.7573 309.95C90.7573 311.192 91.1533 312.236 91.8733 312.956C92.6293 313.748 93.7633 314.18 95.1313 314.18C96.0853 314.18 97.0213 313.946 97.6693 313.514C97.7593 313.442 97.8133 313.37 97.7593 313.28L97.3993 312.614C97.3633 312.524 97.2553 312.488 97.1293 312.578C96.4993 312.956 95.8513 313.082 95.1673 313.082ZM106.88 306.098C106.916 306.008 106.934 305.864 106.754 305.864H105.674C105.53 305.864 105.44 305.936 105.404 306.062L102.884 312.848L100.094 306.062C100.058 305.936 99.9859 305.864 99.8239 305.864H98.6539C98.4739 305.864 98.4739 306.008 98.5099 306.098L102.2 314.486C101.912 315.17 101.57 315.71 101.228 316.106C100.742 316.646 100.184 316.934 99.5179 316.934C99.3379 316.934 99.2839 316.916 99.1759 316.916C99.0859 316.916 99.0139 316.97 99.0139 317.042V318.032C99.0139 318.122 99.0679 318.176 99.1579 318.176C100.4 318.23 101.336 317.834 102.074 317.114C102.686 316.466 103.19 315.566 103.64 314.432L106.88 306.098ZM107.322 305.864C107.232 305.864 107.16 305.954 107.16 306.044V306.854C107.16 306.944 107.232 307.034 107.322 307.034H110.364V313.838C110.364 313.928 110.454 314 110.544 314H111.516C111.606 314 111.678 313.928 111.678 313.838V307.034H114.72C114.828 307.034 114.9 306.944 114.9 306.854V306.044C114.9 305.954 114.828 305.864 114.72 305.864H107.322ZM117.172 309.95C117.172 309.086 117.46 308.312 117.982 307.754C118.504 307.16 119.278 306.8 120.178 306.8C121.078 306.8 121.852 307.16 122.374 307.754C122.896 308.312 123.184 309.086 123.184 309.95C123.184 310.814 122.896 311.588 122.374 312.146C121.852 312.74 121.078 313.1 120.178 313.1C119.278 313.1 118.504 312.74 117.982 312.146C117.46 311.588 117.172 310.814 117.172 309.95ZM115.876 309.95C115.876 311.174 116.326 312.218 117.082 312.956C117.856 313.73 118.954 314.18 120.178 314.18C121.402 314.18 122.5 313.73 123.274 312.956C124.03 312.218 124.48 311.174 124.48 309.95C124.48 308.726 124.03 307.682 123.274 306.944C122.5 306.17 121.402 305.72 120.178 305.72C118.954 305.72 117.856 306.17 117.082 306.944C116.326 307.682 115.876 308.726 115.876 309.95ZM133.253 306.044C133.253 305.954 133.181 305.864 133.091 305.864H132.119C132.029 305.864 131.939 305.954 131.939 306.044V309.86C131.363 310.076 130.517 310.292 129.671 310.292C129.023 310.292 128.537 310.166 128.231 309.824C127.943 309.536 127.799 309.086 127.799 308.474V306.044C127.799 305.954 127.709 305.864 127.619 305.864H126.647C126.557 305.864 126.485 305.954 126.485 306.044V308.474C126.485 309.464 126.719 310.184 127.205 310.67C127.709 311.156 128.501 311.39 129.563 311.39C130.409 311.39 131.291 311.174 131.939 310.94V313.838C131.939 313.928 132.029 314 132.119 314H133.091C133.181 314 133.253 313.928 133.253 313.838V306.044ZM142.121 305.864C142.031 305.864 141.941 305.954 141.941 306.044V309.338H137.153V306.044C137.153 305.954 137.081 305.864 136.973 305.864H136.019C135.929 305.864 135.839 305.954 135.839 306.044V313.838C135.839 313.928 135.929 314 136.019 314H136.973C137.081 314 137.153 313.928 137.153 313.838V310.49H141.941V313.838C141.941 313.928 142.031 314 142.121 314H143.075C143.165 314 143.255 313.928 143.255 313.838V306.044C143.255 305.954 143.165 305.864 143.075 305.864H142.121ZM148.721 306.782C149.261 306.782 149.837 306.908 150.197 307.322C150.485 307.664 150.611 308.096 150.611 308.816V309.086C149.531 309.14 148.073 309.248 146.975 309.662C145.985 310.04 145.301 310.67 145.301 311.786C145.301 312.614 145.679 313.208 146.219 313.604C146.777 314 147.497 314.18 148.235 314.18C149.135 314.18 149.855 314.036 150.683 313.55H150.755V313.838C150.755 313.928 150.827 314 150.917 314H151.763C151.853 314 151.925 313.928 151.925 313.838V308.798C151.925 307.754 151.673 307.07 151.259 306.602C150.611 305.864 149.657 305.72 148.883 305.72C147.767 305.72 146.615 306.008 145.787 306.566C145.661 306.638 145.643 306.692 145.697 306.8L146.003 307.466C146.039 307.556 146.129 307.592 146.255 307.52C146.939 307.124 147.695 306.782 148.721 306.782ZM148.613 313.136C147.605 313.136 146.561 312.722 146.561 311.714C146.561 310.994 147.155 310.598 147.929 310.4C148.757 310.166 149.765 310.112 150.611 310.076V312.614C149.981 312.938 149.297 313.136 148.613 313.136ZM156.778 305.864C156.112 305.864 155.5 305.99 155.014 306.242C154.294 306.62 153.826 307.322 153.826 308.384C153.826 309.176 154.096 309.734 154.528 310.094C154.924 310.454 155.428 310.598 155.95 310.688L153.628 313.748C153.556 313.892 153.556 314 153.718 314H154.672C154.798 314 154.87 313.982 154.942 313.874L157.084 310.958H159.028V313.838C159.028 313.928 159.1 314 159.19 314H160.126C160.216 314 160.288 313.928 160.288 313.838V306.044C160.288 305.954 160.216 305.864 160.126 305.864H156.778ZM159.028 306.944V309.896H156.994C156.472 309.896 155.968 309.806 155.626 309.554C155.32 309.338 155.122 308.96 155.122 308.402C155.122 307.898 155.284 307.556 155.536 307.322C155.878 307.034 156.382 306.944 156.922 306.944H159.028ZM168.307 309.95C168.307 309.086 168.595 308.312 169.117 307.754C169.639 307.16 170.413 306.8 171.313 306.8C172.213 306.8 172.987 307.16 173.509 307.754C174.031 308.312 174.319 309.086 174.319 309.95C174.319 310.814 174.031 311.588 173.509 312.146C172.987 312.74 172.213 313.1 171.313 313.1C170.413 313.1 169.639 312.74 169.117 312.146C168.595 311.588 168.307 310.814 168.307 309.95ZM167.011 309.95C167.011 311.174 167.461 312.218 168.217 312.956C168.991 313.73 170.089 314.18 171.313 314.18C172.537 314.18 173.635 313.73 174.409 312.956C175.165 312.218 175.615 311.174 175.615 309.95C175.615 308.726 175.165 307.682 174.409 306.944C173.635 306.17 172.537 305.72 171.313 305.72C170.089 305.72 168.991 306.17 168.217 306.944C167.461 307.682 167.011 308.726 167.011 309.95ZM177.89 305.864C177.8 305.864 177.71 305.954 177.71 306.044V313.838C177.71 313.928 177.8 314 177.89 314H178.844C178.952 314 179.024 313.928 179.024 313.838V307.034H183.578V313.838C183.578 313.928 183.668 314 183.758 314H184.712C184.802 314 184.892 313.928 184.892 313.838V306.044C184.892 305.954 184.802 305.864 184.712 305.864H177.89ZM189.392 307.034H193.19V313.838C193.19 313.928 193.262 314 193.352 314H194.324C194.414 314 194.504 313.928 194.504 313.838V306.044C194.504 305.954 194.414 305.864 194.324 305.864H188.294C188.168 305.864 188.078 305.954 188.078 306.08V306.818C188.078 308.348 188.006 309.932 187.646 311.336C187.43 312.182 187.088 312.974 186.62 313.676C186.494 313.874 186.548 314 186.728 314H187.52C187.718 314 187.808 313.964 187.916 313.82C188.384 313.244 188.69 312.452 188.906 311.57C189.248 310.13 189.338 308.456 189.392 307.034ZM199.979 306.782C200.519 306.782 201.095 306.908 201.455 307.322C201.743 307.664 201.869 308.096 201.869 308.816V309.086C200.789 309.14 199.331 309.248 198.233 309.662C197.243 310.04 196.559 310.67 196.559 311.786C196.559 312.614 196.937 313.208 197.477 313.604C198.035 314 198.755 314.18 199.493 314.18C200.393 314.18 201.113 314.036 201.941 313.55H202.013V313.838C202.013 313.928 202.085 314 202.175 314H203.021C203.111 314 203.183 313.928 203.183 313.838V308.798C203.183 307.754 202.931 307.07 202.517 306.602C201.869 305.864 200.915 305.72 200.141 305.72C199.025 305.72 197.873 306.008 197.045 306.566C196.919 306.638 196.901 306.692 196.955 306.8L197.261 307.466C197.297 307.556 197.387 307.592 197.513 307.52C198.197 307.124 198.953 306.782 199.979 306.782ZM199.871 313.136C198.863 313.136 197.819 312.722 197.819 311.714C197.819 310.994 198.413 310.598 199.187 310.4C200.015 310.166 201.023 310.112 201.869 310.076V312.614C201.239 312.938 200.555 313.136 199.871 313.136ZM204.67 305.864C204.58 305.864 204.508 305.954 204.508 306.044V306.854C204.508 306.944 204.58 307.034 204.67 307.034H207.712V313.838C207.712 313.928 207.802 314 207.892 314H208.864C208.954 314 209.026 313.928 209.026 313.838V307.034H212.068C212.176 307.034 212.248 306.944 212.248 306.854V306.044C212.248 305.954 212.176 305.864 212.068 305.864H204.67ZM216.59 306.782C217.13 306.782 217.706 306.908 218.066 307.322C218.354 307.664 218.48 308.096 218.48 308.816V309.086C217.4 309.14 215.942 309.248 214.844 309.662C213.854 310.04 213.17 310.67 213.17 311.786C213.17 312.614 213.548 313.208 214.088 313.604C214.646 314 215.366 314.18 216.104 314.18C217.004 314.18 217.724 314.036 218.552 313.55H218.624V313.838C218.624 313.928 218.696 314 218.786 314H219.632C219.722 314 219.794 313.928 219.794 313.838V308.798C219.794 307.754 219.542 307.07 219.128 306.602C218.48 305.864 217.526 305.72 216.752 305.72C215.636 305.72 214.484 306.008 213.656 306.566C213.53 306.638 213.512 306.692 213.566 306.8L213.872 307.466C213.908 307.556 213.998 307.592 214.124 307.52C214.808 307.124 215.564 306.782 216.59 306.782ZM216.482 313.136C215.474 313.136 214.43 312.722 214.43 311.714C214.43 310.994 215.024 310.598 215.798 310.4C216.626 310.166 217.634 310.112 218.48 310.076V312.614C217.85 312.938 217.166 313.136 216.482 313.136ZM88.9502 333.098C88.9862 333.008 89.0042 332.864 88.8242 332.864H87.7442C87.6002 332.864 87.5102 332.936 87.4742 333.062L84.9542 339.848L82.1642 333.062C82.1282 332.936 82.0562 332.864 81.8942 332.864H80.7242C80.5442 332.864 80.5442 333.008 80.5802 333.098L84.2702 341.486C83.9822 342.17 83.6402 342.71 83.2982 343.106C82.8122 343.646 82.2542 343.934 81.5882 343.934C81.4082 343.934 81.3542 343.916 81.2462 343.916C81.1562 343.916 81.0842 343.97 81.0842 344.042V345.032C81.0842 345.122 81.1382 345.176 81.2282 345.176C82.4702 345.23 83.4062 344.834 84.1442 344.114C84.7562 343.466 85.2602 342.566 85.7102 341.432L88.9502 333.098ZM95.0804 339.506C95.2244 339.506 95.2964 339.47 95.3684 339.326L97.9244 335.132V340.838C97.9244 340.928 98.0144 341 98.1044 341H99.0404C99.1484 341 99.2204 340.928 99.2204 340.838V333.044C99.2204 332.954 99.1484 332.864 99.0404 332.864H98.0684C97.9244 332.864 97.8524 332.882 97.7624 333.062L94.7924 338.03L91.8224 333.062C91.7144 332.882 91.6424 332.864 91.4984 332.864H90.5444C90.4544 332.864 90.3644 332.954 90.3644 333.044V340.838C90.3644 340.928 90.4544 341 90.5444 341H91.4804C91.5704 341 91.6604 340.928 91.6604 340.838V335.132L94.2164 339.326C94.3064 339.47 94.3604 339.506 94.5044 339.506H95.0804ZM108.09 332.864C108 332.864 107.91 332.954 107.91 333.044V336.338H103.122V333.044C103.122 332.954 103.05 332.864 102.942 332.864H101.988C101.898 332.864 101.808 332.954 101.808 333.044V340.838C101.808 340.928 101.898 341 101.988 341H102.942C103.05 341 103.122 340.928 103.122 340.838V337.49H107.91V340.838C107.91 340.928 108 341 108.09 341H109.044C109.134 341 109.224 340.928 109.224 340.838V333.044C109.224 332.954 109.134 332.864 109.044 332.864H108.09ZM117.372 338.714C117.372 339.146 117.228 339.452 116.958 339.668C116.616 339.938 116.094 340.028 115.518 340.028H113.124V337.364H115.428C116.13 337.364 116.688 337.49 117.012 337.814C117.264 338.012 117.372 338.318 117.372 338.714ZM120.126 332.864C120.036 332.864 119.964 332.954 119.964 333.044V340.838C119.964 340.928 120.036 341 120.126 341H121.098C121.188 341 121.278 340.928 121.278 340.838V333.044C121.278 332.954 121.188 332.864 121.098 332.864H120.126ZM113.124 333.044C113.124 332.954 113.052 332.864 112.962 332.864H111.99C111.9 332.864 111.81 332.954 111.81 333.044V340.838C111.81 340.928 111.9 341 111.99 341H115.77C116.67 341 117.462 340.802 117.984 340.352C118.416 339.974 118.668 339.434 118.668 338.696C118.668 338.03 118.452 337.526 118.092 337.166C117.57 336.626 116.706 336.392 115.734 336.392H113.124V333.044ZM122.698 340.73C122.59 340.856 122.644 341 122.824 341H123.994C124.138 341 124.21 340.946 124.282 340.856L126.856 337.76L129.412 340.856C129.484 340.928 129.556 341 129.7 341H130.888C131.086 341 131.122 340.874 131.014 340.73L127.63 336.77L130.816 333.152C130.942 333.008 130.888 332.864 130.708 332.864H129.538C129.376 332.864 129.322 332.936 129.25 333.044L126.856 335.942L124.48 333.044C124.408 332.936 124.336 332.864 124.192 332.864H122.968C122.788 332.864 122.752 333.008 122.86 333.152L126.046 336.86L122.698 340.73ZM144.307 333.8C144.847 333.8 145.513 333.998 145.999 334.61C146.413 335.096 146.647 335.888 146.647 336.95C146.647 337.832 146.467 338.696 145.999 339.29C145.513 339.902 144.847 340.1 144.307 340.1C143.677 340.1 143.317 339.992 142.885 339.722V334.178C143.317 333.908 143.677 333.8 144.307 333.8ZM140.167 340.1C139.627 340.1 138.943 339.902 138.457 339.29C137.989 338.696 137.809 337.832 137.809 336.95C137.809 335.888 138.061 335.096 138.457 334.61C138.943 333.998 139.627 333.8 140.167 333.8C140.779 333.8 141.157 333.908 141.589 334.178V339.722C141.157 339.992 140.779 340.1 140.167 340.1ZM142.885 330.182C142.885 330.092 142.813 330.02 142.705 330.02H141.751C141.661 330.02 141.589 330.092 141.589 330.182V333.08C141.103 332.81 140.653 332.72 140.023 332.72C139.123 332.72 138.061 333.062 137.377 333.962C136.855 334.628 136.513 335.618 136.513 336.95C136.513 338.048 136.765 339.146 137.377 339.938C138.061 340.838 139.123 341.18 140.023 341.18C140.653 341.18 141.103 341.09 141.589 340.82V343.754C141.589 343.844 141.661 343.934 141.751 343.934H142.705C142.813 343.934 142.885 343.844 142.885 343.754V340.82C143.371 341.09 143.821 341.18 144.451 341.18C145.351 341.18 146.395 340.838 147.097 339.938C147.709 339.146 147.961 338.048 147.961 336.95C147.961 335.618 147.619 334.628 147.097 333.962C146.395 333.062 145.351 332.72 144.451 332.72C143.821 332.72 143.371 332.81 142.885 333.08V330.182ZM157.206 333.098C157.242 333.008 157.26 332.864 157.08 332.864H156C155.856 332.864 155.766 332.936 155.73 333.062L153.21 339.848L150.42 333.062C150.384 332.936 150.312 332.864 150.15 332.864H148.98C148.8 332.864 148.8 333.008 148.836 333.098L152.526 341.486C152.238 342.17 151.896 342.71 151.554 343.106C151.068 343.646 150.51 343.934 149.844 343.934C149.664 343.934 149.61 343.916 149.502 343.916C149.412 343.916 149.34 343.97 149.34 344.042V345.032C149.34 345.122 149.394 345.176 149.484 345.176C150.726 345.23 151.662 344.834 152.4 344.114C153.012 343.466 153.516 342.566 153.966 341.432L157.206 333.098ZM164.902 332.864C164.812 332.864 164.722 332.954 164.722 333.044V336.338H159.934V333.044C159.934 332.954 159.862 332.864 159.754 332.864H158.8C158.71 332.864 158.62 332.954 158.62 333.044V340.838C158.62 340.928 158.71 341 158.8 341H159.754C159.862 341 159.934 340.928 159.934 340.838V337.49H164.722V340.838C164.722 340.928 164.812 341 164.902 341H165.856C165.946 341 166.036 340.928 166.036 340.838V333.044C166.036 332.954 165.946 332.864 165.856 332.864H164.902ZM174.346 332.864C174.202 332.864 174.112 332.936 174.022 333.044L171.124 336.338H169.936V333.044C169.936 332.954 169.864 332.864 169.756 332.864H168.802C168.712 332.864 168.622 332.954 168.622 333.044V340.838C168.622 340.928 168.712 341 168.802 341H169.756C169.864 341 169.936 340.928 169.936 340.838V337.49H171.124L174.094 340.838C174.202 340.964 174.274 341 174.436 341H175.588C175.75 341 175.804 340.856 175.66 340.712L172.24 336.842L175.552 333.17C175.696 333.008 175.642 332.864 175.48 332.864H174.346ZM177.394 340.838C177.394 340.928 177.484 341 177.574 341H184.99V343.736C184.99 343.844 185.08 343.916 185.17 343.916H186.124C186.214 343.916 186.286 343.844 186.286 343.736V340.01C186.286 339.92 186.214 339.848 186.124 339.848H184.576V333.044C184.576 332.954 184.486 332.864 184.396 332.864H183.424C183.334 332.864 183.262 332.954 183.262 333.044V339.848H178.708V333.044C178.708 332.954 178.636 332.864 178.528 332.864H177.574C177.484 332.864 177.394 332.954 177.394 333.044V340.838ZM195.805 333.044C195.805 332.954 195.733 332.864 195.643 332.864H194.671C194.581 332.864 194.491 332.954 194.491 333.044V333.764L189.307 338.75V333.044C189.307 332.954 189.235 332.864 189.145 332.864H188.173C188.083 332.864 187.993 332.954 187.993 333.044V340.838C187.993 340.928 188.083 341 188.173 341H189.145C189.235 341 189.307 340.928 189.307 340.838V340.136L194.491 335.168V340.838C194.491 340.928 194.581 341 194.671 341H195.643C195.733 341 195.805 340.928 195.805 340.838V333.044ZM206.212 333.044C206.212 332.954 206.14 332.864 206.05 332.864H205.078C204.988 332.864 204.898 332.954 204.898 333.044V333.764L199.714 338.75V333.044C199.714 332.954 199.642 332.864 199.552 332.864H198.58C198.49 332.864 198.4 332.954 198.4 333.044V340.838C198.4 340.928 198.49 341 198.58 341H199.552C199.642 341 199.714 340.928 199.714 340.838V340.136L204.898 335.168V340.838C204.898 340.928 204.988 341 205.078 341H206.05C206.14 341 206.212 340.928 206.212 340.838V333.044ZM202.306 329.48C201.388 329.48 200.902 328.958 200.848 328.184C200.83 328.058 200.758 328.004 200.65 328.004H200.182C200.038 328.004 199.966 328.094 199.966 328.184C199.966 329.426 200.812 330.452 202.306 330.452C203.8 330.452 204.628 329.426 204.628 328.184C204.628 328.094 204.556 328.004 204.412 328.004H203.962C203.854 328.004 203.782 328.058 203.764 328.184C203.692 328.958 203.224 329.48 202.306 329.48Z" fill="#192B4D"/>
<path d="M125.195 174.944V218.104H110.219C109.387 218.104 108.659 218.832 108.659 219.664V229.44C108.659 230.272 109.387 231 110.219 231H154.211C155.043 231 155.771 230.272 155.771 229.44V219.664C155.771 218.832 155.043 218.104 154.211 218.104H140.171V161.216C140.171 160.384 139.547 159.656 138.611 159.656H131.539C130.499 159.656 129.251 159.968 128.211 160.28L110.427 166.416C109.179 166.832 108.867 167.664 108.867 168.704V178.272C108.867 180.144 109.595 180.352 111.051 179.936L125.195 174.944ZM167.763 231V185.304H179.795C185.384 185.304 189.523 186.435 192.211 188.696C194.941 190.957 196.307 194.243 196.307 198.552C196.307 201.453 195.645 203.949 194.323 206.04C193 208.088 191.037 209.667 188.435 210.776C185.875 211.885 182.696 212.44 178.899 212.44H173.523V231H167.763ZM162.195 222.296V218.136H184.083V222.296H162.195ZM162.195 212.44V207.576H176.851V212.44H162.195ZM178.067 207.576C180.669 207.576 182.867 207.299 184.659 206.744C186.493 206.189 187.901 205.272 188.883 203.992C189.864 202.712 190.355 200.963 190.355 198.744C190.355 195.843 189.459 193.688 187.667 192.28C185.875 190.872 183.08 190.168 179.283 190.168H173.523V207.576H178.067Z" fill="#FBC300"/>
<path d="M100.487 55.864C100.487 50.824 96.6473 47.44 91.7513 47.44C86.8553 47.44 82.9913 50.8 82.9913 55.864C82.9913 60.928 86.8553 64.24 91.7513 64.24C96.6473 64.24 100.487 60.904 100.487 55.864ZM96.8153 55.864C96.8153 58.792 94.6793 61.024 91.7513 61.024C88.8233 61.024 86.6633 58.816 86.6633 55.864C86.6633 52.936 88.8233 50.68 91.7513 50.68C94.6793 50.68 96.8153 52.936 96.8153 55.864ZM108.541 61.576C107.629 61.576 106.885 61.24 106.381 60.688C105.877 60.16 105.589 59.392 105.589 58.504C105.589 57.664 105.877 56.944 106.357 56.416C106.885 55.84 107.653 55.504 108.541 55.504C109.405 55.504 110.053 55.744 110.821 56.224C111.037 56.344 111.277 56.296 111.349 56.128L112.285 54.376C112.381 54.184 112.309 54.016 112.141 53.896C111.253 53.272 110.029 52.816 108.541 52.816C106.501 52.816 104.677 53.584 103.549 54.976C102.805 55.888 102.349 57.088 102.349 58.504C102.349 60.136 102.877 61.504 103.789 62.488C104.869 63.616 106.453 64.24 108.469 64.24C109.957 64.24 111.301 63.832 112.189 63.184C112.357 63.064 112.429 62.896 112.333 62.728L111.445 61C111.349 60.808 111.157 60.76 110.917 60.904C110.125 61.36 109.429 61.576 108.541 61.576ZM113.545 53.008C113.329 53.008 113.161 53.152 113.161 53.368V55.432C113.161 55.648 113.329 55.792 113.545 55.792H116.953V63.64C116.953 63.832 117.121 64 117.313 64H119.737C119.953 64 120.121 63.832 120.121 63.64V55.792H123.529C123.721 55.792 123.889 55.648 123.889 55.432V53.368C123.889 53.152 123.721 53.008 123.529 53.008H113.545ZM129.621 55.24C130.173 55.24 130.677 55.384 130.941 55.72C131.181 56.008 131.277 56.416 131.277 56.968V57.208C129.981 57.304 128.253 57.496 126.933 58.072C125.781 58.6 124.941 59.44 124.941 60.856C124.941 61.936 125.349 62.8 126.021 63.352C126.669 63.928 127.581 64.24 128.565 64.24C129.669 64.24 130.509 64.072 131.493 63.448H131.589V63.64C131.589 63.832 131.757 64 131.973 64H134.085C134.277 64 134.445 63.832 134.445 63.64V56.968C134.445 55.576 134.085 54.712 133.485 54.04C132.549 53.008 131.109 52.792 130.005 52.792C128.277 52.792 126.645 53.296 125.541 53.992C125.325 54.136 125.301 54.256 125.397 54.472L126.093 55.984C126.213 56.248 126.381 56.248 126.621 56.104C127.437 55.648 128.493 55.24 129.621 55.24ZM129.597 61.888C128.709 61.888 127.965 61.528 127.965 60.76C127.965 59.584 129.837 59.392 131.277 59.344V61.432C130.725 61.768 130.149 61.888 129.597 61.888ZM141.341 55.792H144.893V63.64C144.893 63.832 145.061 64 145.253 64H147.677C147.893 64 148.037 63.832 148.037 63.64V53.368C148.037 53.152 147.893 53.008 147.677 53.008H138.557C138.365 53.008 138.197 53.176 138.197 53.368V54.664C138.197 56.776 138.101 58.552 137.693 60.208C137.405 61.24 136.997 62.248 136.373 63.256C136.109 63.736 136.277 64 136.661 64H138.653C139.061 64 139.253 63.928 139.517 63.616C140.117 62.848 140.501 61.84 140.789 60.712C141.125 59.224 141.269 57.472 141.341 55.792ZM154.33 53.368C154.33 53.152 154.162 53.008 153.97 53.008H151.522C151.306 53.008 151.162 53.152 151.162 53.368V63.64C151.162 63.832 151.306 64 151.522 64H156.874C158.122 64 159.226 63.688 159.922 63.04C160.522 62.488 160.906 61.72 160.906 60.664C160.906 59.728 160.594 58.984 160.114 58.432C159.394 57.664 158.218 57.28 156.874 57.28H154.33V53.368ZM157.786 60.664C157.786 61 157.666 61.24 157.474 61.384C157.162 61.648 156.682 61.696 156.202 61.696H154.33V59.584H156.058C156.754 59.584 157.21 59.704 157.498 59.944C157.69 60.112 157.786 60.352 157.786 60.664ZM171.556 53.008C171.34 53.008 171.196 53.152 171.196 53.368V57.064H166.54V53.368C166.54 53.152 166.372 53.008 166.18 53.008H163.756C163.54 53.008 163.396 53.152 163.396 53.368V63.64C163.396 63.832 163.54 64 163.756 64H166.18C166.372 64 166.54 63.832 166.54 63.64V59.824H171.196V63.64C171.196 63.832 171.34 64 171.556 64H173.956C174.172 64 174.316 63.832 174.316 63.64V53.368C174.316 53.152 174.172 53.008 173.956 53.008H171.556ZM184.059 60.664C184.059 61 183.939 61.24 183.747 61.384C183.435 61.648 182.955 61.696 182.475 61.696H180.603V59.584H182.331C183.027 59.584 183.483 59.704 183.771 59.944C183.963 60.112 184.059 60.352 184.059 60.664ZM189.003 53.008C188.787 53.008 188.619 53.152 188.619 53.368V63.64C188.619 63.832 188.787 64 189.003 64H191.451C191.643 64 191.811 63.832 191.811 63.64V53.368C191.811 53.152 191.643 53.008 191.451 53.008H189.003ZM180.603 53.368C180.603 53.152 180.435 53.008 180.243 53.008H177.795C177.579 53.008 177.435 53.152 177.435 53.368V63.64C177.435 63.832 177.579 64 177.795 64H183.147C184.395 64 185.499 63.688 186.195 63.04C186.795 62.488 187.179 61.72 187.179 60.664C187.179 59.728 186.867 58.984 186.387 58.432C185.667 57.664 184.491 57.28 183.147 57.28H180.603V53.368ZM197.583 57.376C197.655 56.824 197.847 56.32 198.183 55.936C198.543 55.528 199.191 55.288 199.911 55.288C200.607 55.288 201.183 55.552 201.543 55.936C201.879 56.344 202.047 56.8 202.071 57.376H197.583ZM200.463 61.72C199.575 61.72 198.807 61.432 198.327 60.928C197.943 60.544 197.727 60.088 197.607 59.464H204.783C204.999 59.464 205.143 59.32 205.143 59.104C205.167 57.424 204.927 55.792 204.135 54.712C203.271 53.536 201.879 52.792 199.887 52.792C198.159 52.792 196.791 53.368 195.855 54.328C194.871 55.336 194.247 56.728 194.247 58.384C194.247 60.136 194.823 61.624 195.855 62.632C196.887 63.664 198.375 64.24 200.223 64.24C201.831 64.24 203.463 63.736 204.351 63.112C204.519 62.992 204.591 62.8 204.519 62.632L203.679 61.072C203.583 60.88 203.391 60.832 203.127 60.976C202.335 61.432 201.519 61.72 200.463 61.72ZM117.217 89.008C116.881 89.008 116.689 89.104 116.521 89.368L113.617 93.064H112.465V89.368C112.465 89.152 112.297 89.008 112.105 89.008H109.657C109.465 89.008 109.297 89.152 109.297 89.368V93.064H108.145L105.241 89.368C105.049 89.104 104.881 89.008 104.545 89.008H101.737C101.401 89.008 101.281 89.272 101.569 89.656L105.481 94.312L101.401 99.352C101.137 99.712 101.233 100 101.545 100H104.473C104.785 100 104.977 99.904 105.169 99.64L108.169 95.824H109.297V99.64C109.297 99.832 109.465 100 109.657 100H112.105C112.297 100 112.465 99.832 112.465 99.64V95.824H113.593L116.593 99.64C116.785 99.904 116.953 100 117.289 100H120.193C120.529 100 120.625 99.712 120.361 99.352L116.281 94.312L120.193 89.656C120.481 89.272 120.361 89.008 120.025 89.008H117.217ZM133.565 89.368C133.565 89.152 133.397 89.008 133.205 89.008H130.757C130.541 89.008 130.397 89.152 130.397 89.368V90.688L125.525 95.056V89.368C125.525 89.152 125.357 89.008 125.165 89.008H122.717C122.501 89.008 122.357 89.152 122.357 89.368V99.64C122.357 99.832 122.501 100 122.717 100H125.165C125.357 100 125.525 99.832 125.525 99.64V98.344L130.397 94V99.64C130.397 99.832 130.541 100 130.757 100H133.205C133.397 100 133.565 99.832 133.565 99.64V89.368ZM135.717 89.008C135.501 89.008 135.333 89.152 135.333 89.368V91.432C135.333 91.648 135.501 91.792 135.717 91.792H139.125V99.64C139.125 99.832 139.293 100 139.485 100H141.909C142.125 100 142.293 99.832 142.293 99.64V91.792H145.701C145.893 91.792 146.061 91.648 146.061 91.432V89.368C146.061 89.152 145.893 89.008 145.701 89.008H135.717ZM150.521 93.376C150.593 92.824 150.785 92.32 151.121 91.936C151.481 91.528 152.129 91.288 152.849 91.288C153.545 91.288 154.121 91.552 154.481 91.936C154.817 92.344 154.985 92.8 155.009 93.376H150.521ZM153.401 97.72C152.513 97.72 151.745 97.432 151.265 96.928C150.881 96.544 150.665 96.088 150.545 95.464H157.721C157.937 95.464 158.081 95.32 158.081 95.104C158.105 93.424 157.865 91.792 157.073 90.712C156.209 89.536 154.817 88.792 152.825 88.792C151.097 88.792 149.729 89.368 148.793 90.328C147.809 91.336 147.185 92.728 147.185 94.384C147.185 96.136 147.761 97.624 148.793 98.632C149.825 99.664 151.313 100.24 153.161 100.24C154.769 100.24 156.401 99.736 157.289 99.112C157.457 98.992 157.529 98.8 157.457 98.632L156.617 97.072C156.521 96.88 156.329 96.832 156.065 96.976C155.273 97.432 154.457 97.72 153.401 97.72ZM164.45 91.792H168.002V99.64C168.002 99.832 168.17 100 168.362 100H170.786C171.002 100 171.146 99.832 171.146 99.64V89.368C171.146 89.152 171.002 89.008 170.786 89.008H161.666C161.474 89.008 161.306 89.176 161.306 89.368V90.664C161.306 92.776 161.21 94.552 160.802 96.208C160.514 97.24 160.106 98.248 159.482 99.256C159.218 99.736 159.386 100 159.77 100H161.762C162.17 100 162.362 99.928 162.626 99.616C163.226 98.848 163.61 97.84 163.898 96.712C164.234 95.224 164.378 93.472 164.45 91.792ZM185.479 89.368C185.479 89.152 185.311 89.008 185.119 89.008H182.671C182.455 89.008 182.311 89.152 182.311 89.368V90.688L177.439 95.056V89.368C177.439 89.152 177.271 89.008 177.079 89.008H174.631C174.415 89.008 174.271 89.152 174.271 89.368V99.64C174.271 99.832 174.415 100 174.631 100H177.079C177.271 100 177.439 99.832 177.439 99.64V98.344L182.311 94V99.64C182.311 99.832 182.455 100 182.671 100H185.119C185.311 100 185.479 99.832 185.479 99.64V89.368Z" fill="#192B4D"/>
</g>
<defs>
<clipPath id="clip0_1_901">
<rect width="288" height="390" fill="white"/>
</clipPath>
</defs>
</svg>
